<?xml version="1.0" encoding="UTF-8" standalone="no"?>
<svg
   xmlns:dc="http://purl.org/dc/elements/1.1/"
   xmlns:cc="http://creativecommons.org/ns#"
   xmlns:rdf="http://www.w3.org/1999/02/22-rdf-syntax-ns#"
   xmlns:svg="http://www.w3.org/2000/svg"
   xmlns="http://www.w3.org/2000/svg"
   xmlns:sodipodi="http://sodipodi.sourceforge.net/DTD/sodipodi-0.dtd"
   xmlns:inkscape="http://www.inkscape.org/namespaces/inkscape"
   version="1.1"
   id="Layer_1"
   x="0px"
   y="0px"
   viewBox="0 0 419 333"
   xml:space="preserve"
   sodipodi:docname="bamv.svg"
   width="419"
   height="333"
   inkscape:version="1.0 (4035a4f, 2020-05-01)"><metadata
   id="metadata109"><rdf:RDF><cc:Work
       rdf:about=""><dc:format>image/svg+xml</dc:format><dc:type
         rdf:resource="http://purl.org/dc/dcmitype/StillImage" /><dc:title></dc:title></cc:Work></rdf:RDF></metadata><defs
   id="defs107" /><sodipodi:namedview
   inkscape:document-rotation="0"
   pagecolor="#ffffff"
   bordercolor="#666666"
   borderopacity="1"
   objecttolerance="10"
   gridtolerance="10"
   guidetolerance="10"
   inkscape:pageopacity="0"
   inkscape:pageshadow="2"
   inkscape:window-width="1920"
   inkscape:window-height="1035"
   id="namedview105"
   showgrid="false"
   inkscape:zoom="1.2308826"
   inkscape:cx="222.9032"
   inkscape:cy="145.31547"
   inkscape:window-x="0"
   inkscape:window-y="23"
   inkscape:window-maximized="1"
   inkscape:current-layer="Layer_1" />

<g
   id="g16"
   transform="translate(-46.335369,-105.90942)">
	<path
   style="fill:#232323"
   d="M 459.96,398.696 V 122.744 c 0,-6.6 -5.4,-12 -12,-12 H 64.112 c -6.6,0 -12,5.4 -12,12 v 275.952 c 0.008,0 408.856,0 407.848,0 z"
   id="path12" />
	<rect
   x="67.112"
   y="125.744"
   style="fill:#37abc8"
   width="377.84"
   height="257.92001"
   id="rect14" />
</g>



<g
   id="g50"
   transform="translate(-46.335369,-105.90942)">
	<rect
   x="368"
   y="351.74399"
   style="fill:#e6e5e5"
   width="32"
   height="8"
   id="rect26" />
	<rect
   x="316.79999"
   y="351.74399"
   style="fill:#e6e5e5"
   width="32"
   height="8"
   id="rect28" />
	<rect
   x="265.60001"
   y="351.74399"
   style="fill:#e6e5e5"
   width="32"
   height="8"
   id="rect30" />
	<rect
   x="214.39999"
   y="351.74399"
   style="fill:#e6e5e5"
   width="32"
   height="8"
   id="rect32" />
	<rect
   x="163.2"
   y="351.74399"
   style="fill:#e6e5e5"
   width="32"
   height="8"
   id="rect34" />
	<rect
   x="112"
   y="351.74399"
   style="fill:#e6e5e5"
   width="32"
   height="8"
   id="rect36" />
	<rect
   x="368"
   y="149.696"
   style="fill:#e6e5e5"
   width="32"
   height="8"
   id="rect38" />
	<rect
   x="316.79999"
   y="149.696"
   style="fill:#e6e5e5"
   width="32"
   height="8"
   id="rect40" />
	<rect
   x="265.60001"
   y="149.696"
   style="fill:#e6e5e5"
   width="32"
   height="8"
   id="rect42" />
	<rect
   x="214.39999"
   y="149.696"
   style="fill:#e6e5e5"
   width="32"
   height="8"
   id="rect44" />
	<rect
   x="163.2"
   y="149.696"
   style="fill:#e6e5e5"
   width="32"
   height="8"
   id="rect46" />
	<rect
   x="112"
   y="149.696"
   style="fill:#e6e5e5"
   width="32"
   height="8"
   id="rect48" />
</g>
<rect
   x="65.664627"
   y="168.81859"
   style="fill:#db2b42"
   width="15.784"
   height="34.616001"
   id="rect52" />
<rect
   x="91.312622"
   y="149.03459"
   style="fill:#1c2224"
   width="15.784"
   height="54.400002"
   id="rect54" />
<rect
   x="116.95262"
   y="126.81858"
   style="fill:#db2b42"
   width="15.784"
   height="76.655998"
   id="rect56" />
<rect
   x="142.60063"
   y="104.52259"
   style="fill:#1c2224"
   width="15.784"
   height="98.912003"
   id="rect58" />
<g
   id="g64"
   transform="translate(-46.335369,-105.90942)">
	<rect
   x="214.584"
   y="195.60001"
   style="fill:#db2b42"
   width="15.784"
   height="113.744"
   id="rect60" />
	<rect
   x="281.60001"
   y="274.728"
   style="fill:#db2b42"
   width="15.784"
   height="34.616001"
   id="rect62" />
</g>
<rect
   x="260.94464"
   y="149.03459"
   style="fill:#00112b"
   width="15.784"
   height="54.400002"
   id="rect66" />
<rect
   x="286.55264"
   y="126.81858"
   style="fill:#db2b42"
   width="15.784"
   height="76.655998"
   id="rect68" />
<rect
   x="312.20065"
   y="104.52259"
   style="fill:#1c2224"
   width="15.784"
   height="98.912003"
   id="rect70" />
<rect
   x="337.82465"
   y="89.69059"
   style="fill:#db2b42"
   width="15.784"
   height="113.744"
   id="rect72" />
<g
   id="g74">
</g>
<g
   id="g76">
</g>
<g
   id="g78">
</g>
<g
   id="g80">
</g>
<g
   id="g82">
</g>
<g
   id="g84">
</g>
<g
   id="g86">
</g>
<g
   id="g88">
</g>
<g
   id="g90">
</g>
<g
   id="g92">
</g>
<g
   id="g94">
</g>
<g
   id="g96">
</g>
<g
   id="g98">
</g>
<g
   id="g100">
</g>
<g
   id="g102">
</g>
<path
   id="path233"
   d="m 53.676311,132.37995 v -6.79188 c -5.419156,-0.21539 -10.672426,-1.50239 -13.747772,-3.07552 l 2.429725,-8.37029 c 3.397562,1.64281 8.163934,3.14519 13.424367,3.14519 4.60885,0 7.76296,-1.57312 7.76296,-4.43325 0,-2.72077 -2.58726,-4.43854 -8.57207,-6.22704 -8.650836,-2.57402 -14.556893,-6.14997 -14.556893,-13.087555 0,-6.29672 5.016983,-11.23043 13.669013,-12.73281 v -6.79823 h 7.92049 v 6.29673 c 5.41915,0.21538 9.06015,1.21204 11.72617,2.35863 l -2.3438,8.08523 c -2.10036,-0.78656 -5.82013,-2.43465 -11.64742,-2.43465 -5.25446,0 -6.952645,2.00389 -6.952645,4.00777 0,2.35864 2.830705,3.86208 9.704595,6.15103 9.61985,3.005825 13.50432,6.937585 13.50432,13.380005 0,6.36641 -5.09575,11.80161 -14.3922,13.23431 v 7.29233 z"
   style="fill:#d40055;stroke-width:0.14031" /><g
   id="g378"
   transform="matrix(-0.41437364,0,0,0.39336514,332.78181,134.384)"><rect
     x="171.504"
     y="252.65601"
     transform="matrix(-0.7074,-0.7068,0.7068,-0.7074,114.0726,624.5325)"
     style="fill:#fca12a"
     width="29.6"
     height="71.999001"
     id="rect291" /><rect
     x="184.75301"
     y="258.61099"
     transform="matrix(-0.7071,-0.7071,0.7071,-0.7071,119.363,638.6632)"
     style="fill:#ea860f"
     width="14.4"
     height="71.999001"
     id="rect293" /><circle
     style="fill:#f15249"
     cx="315.39999"
     cy="160.2"
     r="160"
     id="circle295" /><path
     style="fill:#ad0e0e"
     d="m 429,46.6 c 62.4,62.4 62.4,163.2 0,225.6 -62.4,62.4 -163.2,62.4 -225.6,0"
     id="path297" /><circle
     style="fill:#d1d1d3"
     cx="315.39999"
     cy="160.2"
     r="124.8"
     id="circle299" /><circle
     style="fill:#efefef"
     cx="315.39999"
     cy="174.60001"
     r="110.4"
     id="circle301" /><path
     style="fill:#d1d1d3"
     d="M 441,160.2 C 441,229 385,285 316.2,285 247.4,285 191.4,229 191.4,160.2"
     id="path303" /><path
     style="fill:#0aa06e"
     d="m 51.4,466.6 c -12,12 -30.4,12 -42.4,0 v 0 C -3,454.6 -3,436.2 9,424.2 L 124.2,309 c 12,-12 30.4,-12 42.4,0 v 0 c 12,12 12,30.4 0,42.4 z"
     id="path305" /><path
     style="fill:#007c56"
     d="m 166.6,309 v 0 c 12,12 12,30.4 0,42.4 L 51.4,466.6 c -12,12 -30.4,12 -42.4,0 v 0"
     id="path307" /></g><g
   id="g445"
   transform="matrix(0.17925284,0,0,-0.19368086,204.06592,144.10639)"
   style="fill:#ffffff"><g
     id="g443"
     style="fill:#ffffff"><polygon
       id="polygon441"
       points="473.659,329.906 612,348.31 558.78,219.302 529.495,257.355 167.812,6.436 142.51,42.926 502.395,292.569 "
       style="fill:#ffffff" /></g></g></svg>
