<?xml version="1.0" encoding="UTF-8" standalone="no"?>
<svg
   xmlns:dc="http://purl.org/dc/elements/1.1/"
   xmlns:cc="http://creativecommons.org/ns#"
   xmlns:rdf="http://www.w3.org/1999/02/22-rdf-syntax-ns#"
   xmlns:svg="http://www.w3.org/2000/svg"
   xmlns="http://www.w3.org/2000/svg"
   xmlns:sodipodi="http://sodipodi.sourceforge.net/DTD/sodipodi-0.dtd"
   xmlns:inkscape="http://www.inkscape.org/namespaces/inkscape"
   inkscape:version="1.0 (4035a4f, 2020-05-01)"
   height="194"
   width="195"
   sodipodi:docname="OBIC_Campaign_Oracle-Big-Data-Campaign_detailed_rgb.svg"
   version="1.1"
   viewBox="0 0 195 194"
   id="Icons">
  <metadata
     id="metadata71">
    <rdf:RDF>
      <cc:Work
         rdf:about="">
        <dc:format>image/svg+xml</dc:format>
        <dc:type
           rdf:resource="http://purl.org/dc/dcmitype/StillImage" />
        <dc:title>OCIC_Campaign_Oracle-Big-Data-Campaign_Detailed</dc:title>
      </cc:Work>
    </rdf:RDF>
  </metadata>
  <sodipodi:namedview
     inkscape:current-layer="Icons"
     inkscape:window-maximized="0"
     inkscape:window-y="23"
     inkscape:window-x="0"
     inkscape:cy="122.90583"
     inkscape:cx="110.85202"
     inkscape:zoom="2.3229167"
     showgrid="false"
     id="namedview69"
     inkscape:window-height="818"
     inkscape:window-width="1182"
     inkscape:pageshadow="2"
     inkscape:pageopacity="0"
     guidetolerance="10"
     gridtolerance="10"
     objecttolerance="10"
     borderopacity="1"
     bordercolor="#666666"
     pagecolor="#ffffff" />
  <defs
     id="defs12">
    <style
       id="style10">.cls-1{fill:none;}.cls-2{fill:#cbcece;}.cls-3{fill:#6d8c9e;}.cls-4{fill:#dee0e0;}.cls-5{fill:#942645;}.cls-6{fill:#e9eaea;}.cls-7{fill:#f29111;}</style>
  </defs>
  <title
     id="title14">OCIC_Campaign_Oracle-Big-Data-Campaign_Detailed</title>
  <rect
     y="0"
     x="0"
     id="rect16"
     height="288"
     width="288"
     class="cls-1" />
  <polygon
     transform="translate(-46.340807,-47.632287)"
     id="polygon18"
     points="189,191.37 207.79,199.42 207.79,240 189,231.95 "
     class="cls-2" />
  <polygon
     transform="translate(-46.340807,-47.632287)"
     id="polygon20"
     points="240,194.05 207.79,199.42 207.79,240 240,234.63 "
     class="cls-3" />
  <polygon
     transform="translate(-46.340807,-47.632287)"
     id="polygon22"
     points="221.21,186 189,191.37 207.79,199.42 240,194.05 "
     class="cls-4" />
  <polygon
     transform="translate(-46.340807,-47.632287)"
     id="polygon24"
     points="48,191.37 66.79,199.42 66.79,240 48,231.95 "
     class="cls-5" />
  <polygon
     transform="translate(-46.340807,-47.632287)"
     id="polygon26"
     points="99,194.05 66.79,199.42 66.79,240 99,234.63 "
     class="cls-6" />
  <polygon
     transform="translate(-46.340807,-47.632287)"
     id="polygon28"
     points="80.21,186 48,191.37 66.79,199.42 99,194.05 "
     class="cls-4" />
  <polygon
     transform="translate(-46.340807,-47.632287)"
     id="polygon30"
     points="111,165.95 135.32,176.37 135.32,240 111,229.58 "
     class="cls-7" />
  <polygon
     transform="translate(-46.340807,-47.632287)"
     id="polygon32"
     points="177,169.42 135.32,176.37 135.32,240 177,233.05 "
     class="cls-6" />
  <polygon
     transform="translate(-46.340807,-47.632287)"
     id="polygon34"
     points="152.68,159 111,165.95 135.32,176.37 177,169.42 "
     class="cls-4" />
  <path
     id="path36"
     d="m 169.99919,69.877713 v -23.51 a 23.49,23.49 0 0 0 -20.34,11.77 z"
     class="cls-3" />
  <path
     id="path38"
     d="m 190.90919,65.577713 a 20.53,20.53 0 0 0 -17.77,-10.26 v 20.53 0 l -17.78,-10.27 a 20.53,20.53 0 1 0 35.55,0 z"
     class="cls-3" />
  <path
     id="path40"
     d="m 145.65919,121.86771 a 1.5,1.5 0 0 1 -1.5,-1.5 v -18 a 1.5,1.5 0 0 1 3,0 v 18 a 1.5,1.5 0 0 1 -1.5,1.5 z"
     class="cls-3" />
  <path
     id="path42"
     d="m 154.65919,112.86771 h -18 a 1.5,1.5 0 0 1 0,-3 h 18 a 1.5,1.5 0 0 1 0,3 z"
     class="cls-3" />
  <polygon
     transform="translate(-46.340807,-47.632287)"
     id="polygon44"
     points="120,147 129,132 111,132 "
     class="cls-7" />
  <path
     id="path46"
     d="m 25.659193,145.86771 a 1.5,1.5 0 0 1 -1.5,-1.5 v -39 a 1.5,1.5 0 0 1 3,0 v 39 a 1.5,1.5 0 0 1 -1.5,1.5 z"
     class="cls-5" />
  <path
     id="path48"
     d="m 97.659193,121.86771 a 1.5,1.5 0 0 1 -1.5,-1.5 V 54.367713 a 1.5,1.5 0 0 1 2.999997,0 v 65.999997 a 1.5,1.5 0 0 1 -1.499997,1.5 z"
     class="cls-7" />
  <path
     id="path50"
     d="m 172.65919,145.86771 a 1.5,1.5 0 0 1 -1.5,-1.5 v -39 a 1.5,1.5 0 0 1 3,0 v 39 a 1.5,1.5 0 0 1 -1.5,1.5 z"
     class="cls-3" />
  <path
     id="path52"
     d="m 7.6591928,121.86771 a 3,3 0 1 1 -3,3 3,3 0 0 1 3,-3 m 0,-3 a 6,6 0 1 0 6.0000002,6 6,6 0 0 0 -6.0000002,-6 z"
     class="cls-5" />
  <path
     id="path54"
     d="m 52.659193,162.36771 v 9 h -9 v -9 h 9 m 1,-3 h -11 a 2,2 0 0 0 -2,2 v 11 a 2,2 0 0 0 2,2 h 11 a 2,2 0 0 0 2,-2 v -11 a 2,2 0 0 0 -2,-2 z"
     class="cls-5" />
  <path
     id="path56"
     d="m 151.65919,162.36771 v 9 h -9 v -9 h 9 m 1,-3 h -11 a 2,2 0 0 0 -2,2 v 11 a 2,2 0 0 0 2,2 h 11 a 2,2 0 0 0 2,-2 v -11 a 2,2 0 0 0 -2,-2 z"
     class="cls-3" />
  <path
     id="path58"
     d="m 126.15919,138.36771 a 7.5,7.5 0 1 1 -7.5,7.5 7.51,7.51 0 0 1 7.5,-7.5 m 0,-3 a 10.5,10.5 0 1 0 10.5,10.5 10.5,10.5 0 0 0 -10.5,-10.5 z"
     class="cls-7" />
  <polygon
     transform="translate(-46.340807,-47.632287)"
     id="polygon60"
     points="154.2,240 165,222 143.4,222 "
     class="cls-7" />
  <path
     id="path62"
     d="m 33.659193,72.617713 a 5,5 0 0 1 -5,-5 v -7 h -16 a 2,2 0 0 0 -2,2 v 32 a 2,2 0 0 0 2,2 h 26 a 2,2 0 0 0 2,-2 v -22 z"
     class="cls-5" />
  <rect
     id="rect64"
     ry="2"
     rx="2"
     height="15"
     width="15"
     y="54.617714"
     x="31.659191"
     class="cls-5" />
  <path
     id="path66"
     d="m 80.909193,16.107713 h -17.5 a 1.75,1.75 0 0 0 -1.75,1.75 v 17.51 a 1.76,1.76 0 0 0 1.75,1.75 h 17.5 a 1.76,1.76 0 0 0 1.75,-1.75 v -17.51 a 1.75,1.75 0 0 0 -1.75,-1.75 z m 33.489997,6.51 17.53,-10 a 1,1 0 0 0 0,-2 l -17.53,-10 c -1,-0.55 -1.74,-0.09 -1.74,1 v 20 c 0,1.09 0.78,1.54 1.74,1 z m 8.76,8.49 a 10.5,10.5 0 1 0 10.5,10.5 10.5,10.5 0 0 0 -10.5,-10.5 z m -16.5,-18 a 1.5,1.5 0 0 0 0,-3 h -8.999997 a 1.5,1.5 0 0 0 -1.5,1.5 v 13.5 h -7.5 a 1.5,1.5 0 0 0 0,3 h 7.5 v 13.5 a 1.5,1.5 0 0 0 1.5,1.5 h 8.999997 a 1.5,1.5 0 0 0 0,-3 h -7.5 v -27 z"
     class="cls-7" />
</svg>
