<?xml version="1.0" encoding="UTF-8" standalone="no"?>
<svg
   xmlns:dc="http://purl.org/dc/elements/1.1/"
   xmlns:cc="http://creativecommons.org/ns#"
   xmlns:rdf="http://www.w3.org/1999/02/22-rdf-syntax-ns#"
   xmlns:svg="http://www.w3.org/2000/svg"
   xmlns="http://www.w3.org/2000/svg"
   xmlns:sodipodi="http://sodipodi.sourceforge.net/DTD/sodipodi-0.dtd"
   xmlns:inkscape="http://www.inkscape.org/namespaces/inkscape"
   height="88"
   width="122"
   version="1.1"
   id="Capa_1"
   x="0px"
   y="0px"
   viewBox="0 0 122.00001 88.00001"
   xml:space="preserve"
   sodipodi:docname="connector.svg"
   inkscape:version="1.0 (4035a4f, 2020-05-01)"><metadata
   id="metadata48"><rdf:RDF><cc:Work
       rdf:about=""><dc:format>image/svg+xml</dc:format><dc:type
         rdf:resource="http://purl.org/dc/dcmitype/StillImage" /><dc:title></dc:title></cc:Work></rdf:RDF></metadata><defs
   id="defs46"><filter
     y="-0.25"
     height="1.5"
     inkscape:menu-tooltip="Darkens the edge with an inner blur and adds a flexible glow"
     inkscape:menu="Shadows and Glows"
     inkscape:label="Dark and Glow"
     style="color-interpolation-filters:sRGB"
     id="filter308"><feGaussianBlur
       stdDeviation="5"
       result="result6"
       id="feGaussianBlur298" /><feComposite
       result="result8"
       in="SourceGraphic"
       operator="atop"
       in2="result6"
       id="feComposite300" /><feComposite
       result="result9"
       operator="over"
       in2="SourceAlpha"
       in="result8"
       id="feComposite302" /><feColorMatrix
       values="1 0 0 0 0 0 1 0 0 0 0 0 1 0 0 0 0 0 1 0 "
       result="result10"
       id="feColorMatrix304" /><feBlend
       in="result10"
       mode="normal"
       in2="result6"
       id="feBlend306" /></filter><clipPath
     id="clipPath108"
     clipPathUnits="userSpaceOnUse"><rect
       y="-14.326602"
       x="119.08988"
       height="325.93021"
       width="179.97795"
       id="rect110"
       style="fill:#ffffff;stroke-width:1.11842" /></clipPath><clipPath
     id="clipPath116"
     clipPathUnits="userSpaceOnUse"><rect
       ry="0"
       y="98.047684"
       x="112.822"
       height="99.390808"
       width="194.30455"
       id="rect118"
       style="fill:#ffffff;stroke-width:1.17792" /></clipPath><clipPath
     id="clipPath130"
     clipPathUnits="userSpaceOnUse"><rect
       y="88.645851"
       x="174.67033"
       height="111.03117"
       width="127.08373"
       id="rect132"
       style="fill:#ffffff;stroke-width:1.38024" /></clipPath></defs><sodipodi:namedview
   inkscape:document-rotation="0"
   pagecolor="#ffffff"
   bordercolor="#666666"
   borderopacity="1"
   objecttolerance="10"
   gridtolerance="10"
   guidetolerance="10"
   inkscape:pageopacity="0"
   inkscape:pageshadow="2"
   inkscape:window-width="1251"
   inkscape:window-height="855"
   id="namedview44"
   showgrid="false"
   inkscape:zoom="2.233607"
   inkscape:cx="67.615521"
   inkscape:cy="102.28092"
   inkscape:window-x="0"
   inkscape:window-y="23"
   inkscape:window-maximized="0"
   inkscape:current-layer="g11" />
<g
   id="g11">
	<path
   inkscape:original-d="m 289.66312,34.973745 c 0.051,-1.689 -0.815,-3.273 -2.264,-4.143 l -50,-29.99999985 c -2.21,-1.326 -5.077,-0.609 -6.403,1.60099995 -0.435,0.725 -0.665,1.555 -0.665,2.401 V 29.832745 h -85.332 c -1.409,0 -2.753,0.594 -3.701,1.637 l -81.064,89.170005 c -6.378,-6.649 -15.335,-10.807 -25.234,-10.807 -19.271,0 -34.9999997007,15.729 -34.9999997007,35 0,19.271 15.7289997007,35 34.9999997007,35 9.9,0 18.858,-4.158 25.236,-10.809 l 81.062,89.172 c 0.948,1.043 2.292,1.637 3.701,1.637 h 85.332 v 25 c 0,2.578 2.09,4.667 4.667,4.667 0.846,0 1.676,-0.23 2.401,-0.665 l 50,-30 c 1.363,-0.818 2.216,-2.273 2.264,-3.861 0.051,-1.689 -0.815,-3.273 -2.264,-4.143 l -50,-30 c -2.21,-1.326 -5.077,-0.609 -6.403,1.601 -0.435,0.725 -0.665,1.555 -0.665,2.401 v 25 h -83.121 l -80.807,-88.889 -2.277,3.254 -0.004,-0.002 c 2.828,-4.234 4.756,-9.114 5.514,-14.363 h 160.695 v 25 c 0,2.578 2.09,4.667 4.667,4.667 0.846,0 1.676,-0.23 2.401,-0.665 l 50,-30 c 1.363,-0.818 2.216,-2.273 2.264,-3.861 0.051,-1.689 -0.815,-3.273 -2.264,-4.143 l -50,-30 c -2.21,-1.326 -5.077,-0.609 -6.403,1.601 -0.435,0.725 -0.665,1.555 -0.665,2.401 v 25 h -160.695 c -0.556,-3.857 -1.749,-7.511 -3.463,-10.859 l 81.037,-89.141005 h 83.121 v 25 c 0,2.578 2.09,4.667 4.667,4.667 0.846,0 1.676,-0.23 2.401,-0.665 l 50,-30 c 1.363,-0.817 2.216,-2.272 2.264,-3.861 z m -13.736,-0.141 -36.262,21.758 v -43.515 z m 0,110.000005 -36.262,21.758 v -43.516 z m 0,110 -36.262,21.758 v -43.516 z m -12.401,-219.873005 c 0.039,-0.912 -0.422,-1.773 -1.203,-2.246 l -16,-10 c -1.151,-0.763 -2.703,-0.448 -3.465,0.703 -0.763,1.151 -0.448,2.703 0.703,3.465 0.037,0.024 0.074,0.048 0.112,0.07 l 16,10 c 1.16,0.749 2.708,0.415 3.456,-0.745 0.241,-0.373 0.378,-0.803 0.397,-1.247 z m 0,110.000005 c 0.039,-0.912 -0.422,-1.773 -1.203,-2.246 l -16,-10 c -1.151,-0.763 -2.703,-0.448 -3.465,0.703 -0.763,1.151 -0.448,2.703 0.703,3.465 0.037,0.024 0.074,0.048 0.112,0.07 l 16,10 c 1.16,0.749 2.708,0.415 3.456,-0.745 0.241,-0.373 0.378,-0.803 0.397,-1.247 z m 0,110 c 0.039,-0.912 -0.422,-1.773 -1.203,-2.246 l -16,-10 c -1.151,-0.763 -2.703,-0.448 -3.465,0.703 -0.763,1.151 -0.448,2.703 0.703,3.465 0.037,0.024 0.074,0.048 0.112,0.07 l 16,10 c 1.16,0.749 2.708,0.415 3.456,-0.745 0.241,-0.373 0.378,-0.803 0.397,-1.247 z m -203.527,-110.127 c 0,5.05 -1.481,9.735 -4.029,13.654 l -0.037,-0.025 -0.014,0.021 c -0.136,0.198 -0.257,0.406 -0.363,0.621 -4.503,6.494 -12.009,10.729 -20.557,10.729 -13.866,0 -24.9999997,-11.134 -24.9999997,-25 0,-13.866 11.1339997,-25 24.9999997,-25 13.866,0 25,11.134 25,25 z m -7.5,0 c 0,-9.635 -7.865,-17.5 -17.5,-17.5 -1.381,-0.02 -2.516,1.084 -2.535,2.465 -0.02,1.381 1.084,2.516 2.465,2.535 0.024,0 0.047,0 0.071,0 6.933,0 12.5,5.567 12.5,12.5 -0.02,1.381 1.084,2.516 2.465,2.535 1.381,0.02 2.516,-1.084 2.535,-2.465 -0.001,-0.022 -0.001,-0.046 -0.001,-0.07 z"
   transform="translate(-174.60547,-98.047687)"
   clip-path="url(#clipPath130)"
   id="path8881"
   d="m 289.66312,34.973745 c 0.051,-1.689 -0.815,-3.273 -2.264,-4.143 l -50,-29.99999985 c -2.21,-1.326 -5.077,-0.609 -6.403,1.60099995 -0.435,0.725 -0.665,1.555 -0.665,2.401 V 29.832745 h -85.332 c -1.409,0 -2.753,0.594 -3.701,1.637 l -81.064,89.170005 c -6.378,-6.649 -15.335,-10.807 -25.234,-10.807 -19.271,0 -34.9999997007,15.729 -34.9999997007,35 0,19.271 15.7289997007,35 34.9999997007,35 9.9,0 18.858,-4.158 25.236,-10.809 l 81.062,89.172 c 0.948,1.043 2.292,1.637 3.701,1.637 h 85.332 v 25 c 0,2.578 2.09,4.667 4.667,4.667 0.846,0 1.676,-0.23 2.401,-0.665 l 50,-30 c 1.363,-0.818 2.216,-2.273 2.264,-3.861 0.051,-1.689 -0.815,-3.273 -2.264,-4.143 l -50,-30 c -2.21,-1.326 -5.077,-0.609 -6.403,1.601 -0.435,0.725 -0.665,1.555 -0.665,2.401 v 25 h -83.121 l -80.807,-88.889 -2.277,3.254 -0.004,-0.002 c 2.828,-4.234 4.756,-9.114 5.514,-14.363 h 160.695 v 25 c 0,2.578 2.09,4.667 4.667,4.667 0.846,0 1.676,-0.23 2.401,-0.665 l 50,-30 c 1.363,-0.818 2.216,-2.273 2.264,-3.861 0.051,-1.689 -0.815,-3.273 -2.264,-4.143 l -50,-30 c -2.21,-1.326 -5.077,-0.609 -6.403,1.601 -0.435,0.725 -0.665,1.555 -0.665,2.401 v 25 h -160.695 c -0.556,-3.857 -1.749,-7.511 -3.463,-10.859 l 81.037,-89.141005 h 83.121 v 25 c 0,2.578 2.09,4.667 4.667,4.667 0.846,0 1.676,-0.23 2.401,-0.665 l 50,-30 c 1.363,-0.817 2.216,-2.272 2.264,-3.861 z m -13.736,-0.141 -36.262,21.758 v -43.515 z m 0,110.000005 -36.262,21.758 v -43.516 z m 0,110 -36.262,21.758 v -43.516 z m -12.401,-219.873005 c 0.039,-0.912 -0.422,-1.773 -1.203,-2.246 l -16,-10 c -1.151,-0.763 -2.703,-0.448 -3.465,0.703 -0.763,1.151 -0.448,2.703 0.703,3.465 0.037,0.024 0.074,0.048 0.112,0.07 l 16,10 c 1.16,0.749 2.708,0.415 3.456,-0.745 0.241,-0.373 0.378,-0.803 0.397,-1.247 z m 0,110.000005 c 0.039,-0.912 -0.422,-1.773 -1.203,-2.246 l -16,-10 c -1.151,-0.763 -2.703,-0.448 -3.465,0.703 -0.763,1.151 -0.448,2.703 0.703,3.465 0.037,0.024 0.074,0.048 0.112,0.07 l 16,10 c 1.16,0.749 2.708,0.415 3.456,-0.745 0.241,-0.373 0.378,-0.803 0.397,-1.247 z m 0,110 c 0.039,-0.912 -0.422,-1.773 -1.203,-2.246 l -16,-10 c -1.151,-0.763 -2.703,-0.448 -3.465,0.703 -0.763,1.151 -0.448,2.703 0.703,3.465 0.037,0.024 0.074,0.048 0.112,0.07 l 16,10 c 1.16,0.749 2.708,0.415 3.456,-0.745 0.241,-0.373 0.378,-0.803 0.397,-1.247 z m -203.527,-110.127 c 0,5.05 -1.481,9.735 -4.029,13.654 l -0.037,-0.025 -0.014,0.021 c -0.136,0.198 -0.257,0.406 -0.363,0.621 -4.503,6.494 -12.009,10.729 -20.557,10.729 -13.866,0 -24.9999997,-11.134 -24.9999997,-25 0,-13.866 11.1339997,-25 24.9999997,-25 13.866,0 25,11.134 25,25 z m -7.5,0 c 0,-9.635 -7.865,-17.5 -17.5,-17.5 -1.381,-0.02 -2.516,1.084 -2.535,2.465 -0.02,1.381 1.084,2.516 2.465,2.535 0.024,0 0.047,0 0.071,0 6.933,0 12.5,5.567 12.5,12.5 -0.02,1.381 1.084,2.516 2.465,2.535 1.381,0.02 2.516,-1.084 2.535,-2.465 -0.001,-0.022 -0.001,-0.046 -0.001,-0.07 z"
   style="filter:url(#filter308)" />
<path
   style="fill:#b3b3b3;stroke-width:0.447706"
   d="m 65.14127,46.618533 v -21.31754 l 1.00734,0.64671 c 0.55404,0.35569 8.521,5.14755 17.70436,10.64858 13.23823,7.92998 16.57695,10.11255 16.11742,10.53621 -0.61242,0.56462 -34.31025,20.80359 -34.63792,20.80359 -0.10516,0 -0.1912,-9.5929 -0.1912,-21.31755 z m 22.65408,2.61895 c 0.27093,-0.18091 0.72426,-0.76903 1.0074,-1.30695 1.0287,-1.95436 0.05,-2.89955 -8.60331,-8.30877 -4.56758,-2.85521 -8.72602,-5.32502 -9.24097,-5.48846 -0.56573,-0.17955 -1.38061,-0.006 -2.05903,0.4385 -0.91611,0.60026 -1.09748,1.03636 -0.98542,2.36936 0.1346,1.60109 0.31158,1.74324 8.86762,7.12233 8.27364,5.20155 9.85785,5.94578 11.01371,5.17399 z"
   id="path288" /><path
   style="fill:#ffffff;stroke-width:0.447706"
   d="m 65.43799,53.713373 c -0.34377,-16.02563 -0.3831,-27.86169 -0.0926,-27.86169 0.30066,0 25.78011,15.36501 30.34969,18.30194 2.15341,1.38402 3.91626,2.62822 3.91743,2.76489 0.002,0.19026 -18.46066,11.40115 -32.49642,19.73286 l -1.38296,0.82094 z m 23.2469,-5.24926 c 1.00063,-1.52716 0.53487,-2.98778 -1.43085,-4.48711 -2.6562,-2.02599 -15.08678,-9.62746 -16.21367,-9.91489 -0.5722,-0.14595 -1.54071,-0.0374 -2.15225,0.24125 -0.96844,0.44126 -1.09414,0.75182 -0.97432,2.40728 0.13479,1.86238 0.22326,1.95754 4.39077,4.72325 7.57781,5.02889 13.08556,8.14623 14.3929,8.14623 0.84491,0 1.49559,-0.36538 1.98742,-1.11601 z"
   id="path294" /></g>
<g
   id="g13">
</g>
<g
   id="g15">
</g>
<g
   id="g17">
</g>
<g
   id="g19">
</g>
<g
   id="g21">
</g>
<g
   id="g23">
</g>
<g
   id="g25">
</g>
<g
   id="g27">
</g>
<g
   id="g29">
</g>
<g
   id="g31">
</g>
<g
   id="g33">
</g>
<g
   id="g35">
</g>
<g
   id="g37">
</g>
<g
   id="g39">
</g>
<g
   id="g41">
</g>
</svg>
