<?xml version="1.0" encoding="UTF-8" standalone="no"?>
<svg
   xmlns:dc="http://purl.org/dc/elements/1.1/"
   xmlns:cc="http://creativecommons.org/ns#"
   xmlns:rdf="http://www.w3.org/1999/02/22-rdf-syntax-ns#"
   xmlns:svg="http://www.w3.org/2000/svg"
   xmlns="http://www.w3.org/2000/svg"
   xmlns:sodipodi="http://sodipodi.sourceforge.net/DTD/sodipodi-0.dtd"
   xmlns:inkscape="http://www.inkscape.org/namespaces/inkscape"
   inkscape:version="1.0 (4035a4f, 2020-05-01)"
   sodipodi:docname="cpq-creator.svg"
   xml:space="preserve"
   style="enable-background:new 0 0 508 508;"
   viewBox="0 0 508 508"
   y="0px"
   x="0px"
   id="Layer_1"
   version="1.1"><metadata
   id="metadata73"><rdf:RDF><cc:Work
       rdf:about=""><dc:format>image/svg+xml</dc:format><dc:type
         rdf:resource="http://purl.org/dc/dcmitype/StillImage" /></cc:Work></rdf:RDF></metadata><defs
   id="defs71" /><sodipodi:namedview
   inkscape:current-layer="Layer_1"
   inkscape:window-maximized="1"
   inkscape:window-y="23"
   inkscape:window-x="0"
   inkscape:cy="254"
   inkscape:cx="443.37687"
   inkscape:zoom="1.4468504"
   showgrid="false"
   id="namedview69"
   inkscape:window-height="1035"
   inkscape:window-width="1920"
   inkscape:pageshadow="2"
   inkscape:pageopacity="0"
   guidetolerance="10"
   gridtolerance="10"
   objecttolerance="10"
   borderopacity="1"
   bordercolor="#666666"
   pagecolor="#ffffff" />
<circle
   id="circle10"
   r="254"
   cy="254"
   cx="254"
   style="fill:#37abc8" />
<rect
   id="rect12"
   height="142.8"
   width="341.6"
   style="fill:#FFFFFF;"
   y="241.2"
   x="83.2" />
<rect
   id="rect14"
   height="142.8"
   width="45.2"
   style="fill:#FF7058;"
   y="241.2"
   x="83.2" />
<g
   id="g24">
	<rect
   id="rect16"
   height="8.8"
   width="248.4"
   style="fill:#E6E9EE;"
   y="266.8"
   x="148.4" />
	<rect
   id="rect18"
   height="8.8"
   width="248.4"
   style="fill:#E6E9EE;"
   y="294.4"
   x="148.4" />
	<rect
   id="rect20"
   height="8.8"
   width="248.4"
   style="fill:#E6E9EE;"
   y="322"
   x="148.4" />
	<rect
   id="rect22"
   height="8.8"
   width="126"
   style="fill:#E6E9EE;"
   y="349.2"
   x="148.4" />
</g>
<rect
   id="rect26"
   height="194.398"
   width="22.4"
   style="fill:#324A5E;"
   transform="matrix(0.7071 0.7071 -0.7071 0.7071 271.407 -153.7108)"
   y="153.563"
   x="310.049" />
<rect
   id="rect28"
   height="194.398"
   width="22.4"
   style="fill:#2B3B4E;"
   transform="matrix(0.7071 0.7071 -0.7071 0.7071 255.5814 -146.9756)"
   y="137.827"
   x="294.006" />
<rect
   id="rect30"
   height="194.398"
   width="22.4"
   style="fill:#324A5E;"
   transform="matrix(0.7071 0.7071 -0.7071 0.7071 239.9497 -140.6288)"
   y="122.131"
   x="278.529" />
<polygon
   id="polygon32"
   points="213.2,280.4 191.2,349.2 260.4,327.6 "
   style="fill:#FFD05B;" />
<polygon
   id="polygon34"
   points="199.2,324.4 191.2,349.2 216,341.6 "
   style="fill:#324A5E;" />
<path
   id="path36"
   d="M412.8,157.6l-30-30c-4.8-4.8-12.4-4.8-17.2,0l-15.2,15.2l47.2,47.2l15.2-15.2  C417.6,170,417.6,162.4,412.8,157.6z"
   style="fill:#FF7058;" />
<g
   id="g38">
</g>
<g
   id="g40">
</g>
<g
   id="g42">
</g>
<g
   id="g44">
</g>
<g
   id="g46">
</g>
<g
   id="g48">
</g>
<g
   id="g50">
</g>
<g
   id="g52">
</g>
<g
   id="g54">
</g>
<g
   id="g56">
</g>
<g
   id="g58">
</g>
<g
   id="g60">
</g>
<g
   id="g62">
</g>
<g
   id="g64">
</g>
<g
   id="g66">
</g>
</svg>
