<svg id="Layer_1" data-name="Layer 1" xmlns="http://www.w3.org/2000/svg" viewBox="0 0 59.33 42"><defs><style>.cls-1{fill:#fff;}.cls-2{fill:#2c5967;}</style></defs><title>Technology - Server-Application</title><metadata><?xpacket begin="﻿" id="W5M0MpCehiHzreSzNTczkc9d"?>
<x:xmpmeta xmlns:x="adobe:ns:meta/" x:xmptk="Adobe XMP Core 6.0-c006 79.164648, 2021/01/12-15:52:29        ">
   <rdf:RDF xmlns:rdf="http://www.w3.org/1999/02/22-rdf-syntax-ns#">
      <rdf:Description rdf:about=""
            xmlns:xmp="http://ns.adobe.com/xap/1.0/"
            xmlns:xmpMM="http://ns.adobe.com/xap/1.0/mm/"
            xmlns:stEvt="http://ns.adobe.com/xap/1.0/sType/ResourceEvent#"
            xmlns:xmpRights="http://ns.adobe.com/xap/1.0/rights/"
            xmlns:dc="http://purl.org/dc/elements/1.1/"
            xmlns:lr="http://ns.adobe.com/lightroom/1.0/">
         <xmp:MetadataDate>2021-06-24T19:50:53-05:00</xmp:MetadataDate>
         <xmpMM:InstanceID>xmp.iid:c783617c-8c7d-4999-80bf-8670b5f26341</xmpMM:InstanceID>
         <xmpMM:DocumentID>xmp.did:e63152b6-76f9-4fe0-ae5d-76fbe99ea72e</xmpMM:DocumentID>
         <xmpMM:OriginalDocumentID>xmp.did:e63152b6-76f9-4fe0-ae5d-76fbe99ea72e</xmpMM:OriginalDocumentID>
         <xmpMM:History>
            <rdf:Seq>
               <rdf:li>
                  <rdf:Description>
                     <stEvt:action>saved</stEvt:action>
                     <stEvt:instanceID>xmp.iid:e63152b6-76f9-4fe0-ae5d-76fbe99ea72e</stEvt:instanceID>
                     <stEvt:when>2021-06-18T11:42:16-05:00</stEvt:when>
                     <stEvt:softwareAgent>Adobe Bridge 2021 (Macintosh)</stEvt:softwareAgent>
                     <stEvt:changed>/metadata</stEvt:changed>
                  </rdf:Description>
               </rdf:li>
               <rdf:li>
                  <rdf:Description>
                     <stEvt:action>saved</stEvt:action>
                     <stEvt:instanceID>xmp.iid:c783617c-8c7d-4999-80bf-8670b5f26341</stEvt:instanceID>
                     <stEvt:when>2021-06-24T19:50:53-05:00</stEvt:when>
                     <stEvt:softwareAgent>Adobe Bridge 2021 (Macintosh)</stEvt:softwareAgent>
                     <stEvt:changed>/metadata</stEvt:changed>
                  </rdf:Description>
               </rdf:li>
            </rdf:Seq>
         </xmpMM:History>
         <xmpRights:Marked>True</xmpRights:Marked>
         <dc:title>
            <rdf:Alt>
               <rdf:li xml:lang="x-default">Technology - Server-Application</rdf:li>
            </rdf:Alt>
         </dc:title>
         <dc:subject>
            <rdf:Bag>
               <rdf:li>icon</rdf:li>
               <rdf:li>technology</rdf:li>
               <rdf:li>Hardware</rdf:li>
            </rdf:Bag>
         </dc:subject>
         <dc:rights>
            <rdf:Alt>
               <rdf:li xml:lang="x-default">Oracle All Rights Reserved</rdf:li>
            </rdf:Alt>
         </dc:rights>
         <lr:hierarchicalSubject>
            <rdf:Bag>
               <rdf:li>icon</rdf:li>
               <rdf:li>technology</rdf:li>
               <rdf:li>Hardware</rdf:li>
            </rdf:Bag>
         </lr:hierarchicalSubject>
      </rdf:Description>
   </rdf:RDF>
</x:xmpmeta>
                                                                                                    
                                                                                                    
                                                                                                    
                                                                                                    
                                                                                                    
                                                                                                    
                                                                                                    
                                                                                                    
                                                                                                    
                                                                                                    
                                                                           
<?xpacket end="w"?></metadata>
<polygon class="cls-1" points="0.5 39.36 3.55 37.83 5.83 37.83 5.83 0.5 53.5 0.5 53.5 37.83 55.17 37.83 55.17 37.52 55.89 37.85 58.83 39.32 58.83 41.47 0.5 41.5 0.5 39.36"/><path class="cls-1" d="M53,1V38.33h2.67v0l2.66,1.33V41L1,41V39.67l2.67-1.34H6.33V1H53m1-1H5.33V37.33H3.43l-.21.11L.55,38.77,0,39.05v3H1l57.33,0h1V39l-.55-.28-2.67-1.33-1.44-.73v.65H54V0Z"/><path class="cls-2" d="M18,11.67a2,2,0,1,1-2-2,2,2,0,0,1,2,2m4.67-2a2,2,0,1,0,2,2,2,2,0,0,0-2-2M16,28.33a2,2,0,1,0,2,2,2,2,0,0,0-2-2m6.67,0a2,2,0,1,0,2,2,2,2,0,0,0-2-2m21,6h2.66v-8H43.67Zm-4.67,0h2.67v-8H39Zm-4.67,0H37v-8H34.33Zm24,5.3V41L1,41V39.67l2.67-1.34H6.33V1H53V38.33h2.67v0ZM9,19.67H50.33v-16H9ZM9,38.33H50.33v-16H9ZM43.67,15.67h2.66v-8H43.67Zm-4.67,0h2.67v-8H39Zm-4.67,0H37v-8H34.33Z"/></svg>