<svg id="Icons" xmlns="http://www.w3.org/2000/svg" viewBox="90 45 110 195"><defs><style>.cls-1{fill:none;}.cls-2{fill:#dee0e0;}.cls-3{fill:#939699;}.cls-4{fill:#f80000;}.cls-5{fill:#fff;}.cls-6{fill:#b9bbbd;}</style></defs><title>OCIC_Campaign_Server-Exadata-Exalogic_Detailed</title><rect class="cls-1" width="288" height="288"/><polygon class="cls-2" points="153 48 96 69.64 96 232.84 153 240 153 48"/><polygon class="cls-3" points="146.24 74.94 105.91 87.62 105.91 83.86 146.24 70.74 146.24 74.94"/><polygon class="cls-3" points="146.24 106.94 105.91 116.28 105.91 112.52 146.24 102.74 146.24 106.94"/><polygon class="cls-3" points="115.61 95.44 105.91 98.19 105.91 101.95 115.61 99.3 115.61 95.44"/><polygon class="cls-3" points="134.83 89.98 134.83 94.06 146.24 90.94 146.24 86.74 134.83 89.98"/><polygon class="cls-4" points="130.63 101.26 119.48 104.12 119.48 88.49 130.63 85.15 130.63 101.26"/><polygon class="cls-5" points="146.24 138.94 105.91 144.94 105.91 126.83 146.24 118.71 146.24 138.94"/><polygon class="cls-3" points="146.24 154.93 105.91 159.28 105.91 155.51 146.24 150.74 146.24 154.93"/><polygon class="cls-3" points="146.24 170.94 105.91 173.61 105.91 169.85 146.24 166.74 146.24 170.94"/><polygon class="cls-5" points="127.8 199.6 136.58 180.66 130.94 180.89 124.8 194.81 118.95 181.38 113.54 181.6 121.83 199.56 113.11 218.65 118.25 218.97 124.55 204.2 131.47 219.77 137.6 220.14 127.8 199.6"/><path class="cls-6" d="M153,48,96,69.64v163.2L153,240l39-7.21V69.6Zm0,184-51-5.33V74.29L153,56Z"/></svg>