<svg id="Layer_1" data-name="Layer 1" xmlns="http://www.w3.org/2000/svg" viewBox="0 0 27.91 44"><defs><style>.cls-1{fill:#fff;}.cls-2{fill:#2c5967;}</style></defs><title>Technology - Server-Big</title><metadata><?xpacket begin="﻿" id="W5M0MpCehiHzreSzNTczkc9d"?>
<x:xmpmeta xmlns:x="adobe:ns:meta/" x:xmptk="Adobe XMP Core 6.0-c006 79.164648, 2021/01/12-15:52:29        ">
   <rdf:RDF xmlns:rdf="http://www.w3.org/1999/02/22-rdf-syntax-ns#">
      <rdf:Description rdf:about=""
            xmlns:xmp="http://ns.adobe.com/xap/1.0/"
            xmlns:xmpMM="http://ns.adobe.com/xap/1.0/mm/"
            xmlns:stEvt="http://ns.adobe.com/xap/1.0/sType/ResourceEvent#"
            xmlns:xmpRights="http://ns.adobe.com/xap/1.0/rights/"
            xmlns:dc="http://purl.org/dc/elements/1.1/"
            xmlns:lr="http://ns.adobe.com/lightroom/1.0/">
         <xmp:MetadataDate>2021-06-24T19:50:53-05:00</xmp:MetadataDate>
         <xmpMM:InstanceID>xmp.iid:ccc6833b-2395-4a95-8868-bc61b402a72e</xmpMM:InstanceID>
         <xmpMM:DocumentID>xmp.did:2b2c1e03-015e-4304-a0e1-2d889820423d</xmpMM:DocumentID>
         <xmpMM:OriginalDocumentID>xmp.did:2b2c1e03-015e-4304-a0e1-2d889820423d</xmpMM:OriginalDocumentID>
         <xmpMM:History>
            <rdf:Seq>
               <rdf:li>
                  <rdf:Description>
                     <stEvt:action>saved</stEvt:action>
                     <stEvt:instanceID>xmp.iid:2b2c1e03-015e-4304-a0e1-2d889820423d</stEvt:instanceID>
                     <stEvt:when>2021-06-18T11:42:17-05:00</stEvt:when>
                     <stEvt:softwareAgent>Adobe Bridge 2021 (Macintosh)</stEvt:softwareAgent>
                     <stEvt:changed>/metadata</stEvt:changed>
                  </rdf:Description>
               </rdf:li>
               <rdf:li>
                  <rdf:Description>
                     <stEvt:action>saved</stEvt:action>
                     <stEvt:instanceID>xmp.iid:ccc6833b-2395-4a95-8868-bc61b402a72e</stEvt:instanceID>
                     <stEvt:when>2021-06-24T19:50:53-05:00</stEvt:when>
                     <stEvt:softwareAgent>Adobe Bridge 2021 (Macintosh)</stEvt:softwareAgent>
                     <stEvt:changed>/metadata</stEvt:changed>
                  </rdf:Description>
               </rdf:li>
            </rdf:Seq>
         </xmpMM:History>
         <xmpRights:Marked>True</xmpRights:Marked>
         <dc:title>
            <rdf:Alt>
               <rdf:li xml:lang="x-default">Technology - Server-Big</rdf:li>
            </rdf:Alt>
         </dc:title>
         <dc:subject>
            <rdf:Bag>
               <rdf:li>icon</rdf:li>
               <rdf:li>technology</rdf:li>
               <rdf:li>Hardware</rdf:li>
            </rdf:Bag>
         </dc:subject>
         <dc:rights>
            <rdf:Alt>
               <rdf:li xml:lang="x-default">Oracle All Rights Reserved</rdf:li>
            </rdf:Alt>
         </dc:rights>
         <lr:hierarchicalSubject>
            <rdf:Bag>
               <rdf:li>icon</rdf:li>
               <rdf:li>technology</rdf:li>
               <rdf:li>Hardware</rdf:li>
            </rdf:Bag>
         </lr:hierarchicalSubject>
      </rdf:Description>
   </rdf:RDF>
</x:xmpmeta>
                                                                                                    
                                                                                                    
                                                                                                    
                                                                                                    
                                                                                                    
                                                                                                    
                                                                                                    
                                                                                                    
                                                                                                    
                                                                                                    
                                                                           
<?xpacket end="w"?></metadata>
<polygon class="cls-1" points="0.5 43.5 0.5 41.8 2.67 40.71 3.18 40.71 3.18 0.5 24.73 0.5 24.73 40.71 25.25 40.71 27.41 41.8 27.41 43.5 0.5 43.5"/><path class="cls-1" d="M24.23,1V41.21h.9l1.78.9V43H1v-.89l1.79-.9h.89V1H24.23m1-1H2.68V40.21H2.55l-.21.11-1.79.89L0,41.49V44H27.91V41.49l-.55-.28-1.78-.89-.22-.11h-.13V0Z"/><path class="cls-2" d="M6.81,38.53H21.1V36.75H6.81Zm0-3.13H21.1V33.62H6.81ZM8.6,27.81H19.32v2.68H8.6ZM6.81,32.28H21.1V26H6.81ZM8.6,20.21H19.32v2.68H8.6ZM6.81,24.68H21.1V18.43H6.81Zm0-7.6H21.1V15.3H6.81Zm3.57-6.7h7.15v1.79H10.38ZM8.6,8.6v1.78H6.81v1.79H8.6V14H19.32V12.17h1.79V10.38H19.32V8.6ZM6.81,7.26H21.1V5.47H6.81ZM5.47,2.79h17V41.21h-17ZM3.68,1V41.21H2.79L1,42.11V43H26.91v-.89l-1.78-.9h-.9V1Z"/></svg>