<?xml version="1.0" encoding="UTF-8" standalone="no"?>
<svg
   xmlns:dc="http://purl.org/dc/elements/1.1/"
   xmlns:cc="http://creativecommons.org/ns#"
   xmlns:rdf="http://www.w3.org/1999/02/22-rdf-syntax-ns#"
   xmlns:svg="http://www.w3.org/2000/svg"
   xmlns="http://www.w3.org/2000/svg"
   xmlns:sodipodi="http://sodipodi.sourceforge.net/DTD/sodipodi-0.dtd"
   xmlns:inkscape="http://www.inkscape.org/namespaces/inkscape"
   inkscape:version="1.0 (4035a4f, 2020-05-01)"
   height="337"
   width="430"
   sodipodi:docname="nosql.svg"
   xml:space="preserve"
   viewBox="0 0 430 337"
   y="0px"
   x="0px"
   id="Layer_1"
   version="1.1"><metadata
   id="metadata202"><rdf:RDF><cc:Work
       rdf:about=""><dc:format>image/svg+xml</dc:format><dc:type
         rdf:resource="http://purl.org/dc/dcmitype/StillImage" /><dc:title></dc:title></cc:Work></rdf:RDF></metadata><defs
   id="defs200" /><sodipodi:namedview
   inkscape:current-layer="Layer_1"
   inkscape:window-maximized="0"
   inkscape:window-y="23"
   inkscape:window-x="0"
   inkscape:cy="182.16054"
   inkscape:cx="258.0898"
   inkscape:zoom="1.4355469"
   inkscape:document-rotation="0"
   inkscape:guide-bbox="true"
   showguides="true"
   showgrid="false"
   id="namedview198"
   inkscape:window-height="925"
   inkscape:window-width="1452"
   inkscape:pageshadow="2"
   inkscape:pageopacity="0"
   guidetolerance="10"
   gridtolerance="10"
   objecttolerance="10"
   borderopacity="1"
   bordercolor="#666666"
   pagecolor="#ffffff" />



<path
   id="path155"
   d="m 424.05187,299.27686 c 0,8.8 -7.2,16 -16,16 H 56.051872 c -8.8,0 -16,-7.2 -16,-16 v -160 c 0,-8.8 7.2,-16 16,-16 H 408.05187 c 8.8,0 16,7.2 16,16 z"
   style="fill:#f15642" />
<g
   transform="translate(8.0518721,-116.72314)"
   id="g163">
	<path
   id="path157"
   d="m 98.128,314.672 c 2.944,-24.832 40.416,-29.296 58.064,-15.728 8.704,7.024 -0.496,18.16 -8.192,12.528 -9.456,-6 -30.96,-8.816 -33.648,4.464 -3.456,20.992 52.208,8.976 51.296,43.008 -0.896,32.496 -47.968,33.248 -65.632,18.672 -4.224,-3.456 -4.096,-9.072 -1.776,-12.544 3.312,-3.312 7.024,-4.464 11.376,-0.88 10.496,7.152 37.488,12.528 39.408,-5.648 -1.648,-18.912 -54.864,-7.536 -50.896,-43.872 z"
   style="fill:#ffffff" />
	<path
   id="path159"
   d="m 265.488,369.424 2.048,2.416 c 8.432,7.68 -2.56,20.224 -11.136,12.16 l -4.336,-3.44 c -6.656,4.592 -14.448,6.784 -24.816,6.784 -22.512,0 -48.24,-15.504 -48.24,-46.976 0,-31.472 25.584,-47.456 48.24,-47.456 23.776,0 47.072,15.984 47.072,47.456 0,12.16 -3.088,21.136 -8.832,29.056 z m -7.696,-29.056 c 0,-20.336 -15.984,-30.688 -30.56,-30.688 -15.728,0 -31.216,10.336 -31.216,30.688 0,15.504 13.168,30.208 31.216,30.208 4.592,0 9.072,-1.152 13.552,-2.304 l -14.576,-13.44 c -6.784,-8.192 3.968,-19.84 12.528,-12.288 l 14.464,14.448 c 3.184,-4.464 4.592,-9.968 4.592,-16.624 z"
   style="fill:#ffffff" />
	<path
   id="path161"
   d="m 293.168,303.152 c 0,-4.224 3.584,-7.808 8.064,-7.808 4.096,0 7.552,3.6 7.552,7.808 v 64.096 h 34.8 c 12.528,0 12.8,16.752 0,16.752 h -42.336 c -4.48,0 -8.064,-3.184 -8.064,-7.792 v -73.056 z"
   style="fill:#ffffff" />
</g>
<path
   id="path165"
   d="m 408.05187,315.27686 h -304 v 16 h 304 c 8.8,0 16,-7.2 16,-16 v -16 c 0,8.8 -7.2,16 -16,16 z"
   style="fill:#cad1d8" />
<g
   id="g167">
</g>
<g
   id="g169">
</g>
<g
   id="g171">
</g>
<g
   id="g173">
</g>
<g
   id="g175">
</g>
<g
   id="g177">
</g>
<g
   id="g179">
</g>
<g
   id="g181">
</g>
<g
   id="g183">
</g>
<g
   id="g185">
</g>
<g
   id="g187">
</g>
<g
   id="g189">
</g>
<g
   id="g191">
</g>
<g
   id="g193">
</g>
<g
   id="g195">
</g>
<path
   style="stroke-width:11.1149"
   d="m 179.73668,20.65339 c -4.27093,-4.690697 -9.26498,-8.244257 -14.98215,-10.6934795 -5.71717,-2.449223 -11.97668,-3.662901 -18.76724,-3.662901 -6.79055,0 -13.05006,1.213678 -18.76723,3.662901 -5.71717,2.4492225 -10.71122,6.0027825 -14.98215,10.6934795 -4.27093,4.6907 -7.62666,10.54041 -10.0446,17.56006 -2.41793,7.01965 -3.6269,15.17644 -3.6269,24.43756 0,9.26113 1.20897,17.43978 3.6269,24.5141 2.41794,7.07432 5.77367,12.95683 10.0446,17.63659 4.27093,4.67977 9.26498,8.2224 14.98215,10.61695 5.71717,2.39455 11.97668,3.58636 18.76723,3.58636 6.79056,0 13.05007,-1.19181 18.76724,-3.58636 5.71717,-2.39455 10.71122,-5.92625 14.98215,-10.61695 4.27093,-4.6907 7.62666,-10.56227 10.0446,-17.63659 2.41793,-7.07432 3.6269,-15.25297 3.6269,-24.5141 0,-9.26112 -1.20897,-17.41791 -3.6269,-24.43756 -2.41794,-7.01965 -5.77367,-12.86936 -10.0446,-17.56006 z m -7.64926,61.51487 c -1.54793,5.32487 -3.68339,9.64381 -6.40639,12.93496 -2.723,3.29114 -5.81886,5.66383 -9.26498,7.09618 -3.44612,1.43236 -7.08432,2.16494 -10.89201,2.16494 -3.70599,0 -7.2425,-0.76538 -10.58693,-2.31801 -3.34443,-1.55263 -6.3386,-3.97999 -8.95992,-7.3258 -2.62131,-3.34582 -4.68898,-7.64289 -6.18042,-12.93496 -1.49143,-5.29207 -2.29364,-11.65568 -2.39533,-19.13456 0.10169,-7.67569 0.9265,-14.14864 2.47443,-19.42977 1.54793,-5.28114 3.68339,-9.58915 6.40639,-12.93496 2.723,-3.34582 5.81886,-5.69664 9.26498,-7.09619 3.44612,-1.39956 7.08432,-2.0884 10.892,-2.0884 3.706,0 7.24251,0.74351 10.58694,2.24147 3.34443,1.49797 6.3386,3.93626 8.95991,7.32581 2.62132,3.38955 4.68899,7.69756 6.18042,12.93496 1.49144,5.2374 2.29365,11.59007 2.39534,19.05802 -0.10169,7.67569 -0.9265,14.18143 -2.47443,19.50631 z"
   id="path36" /><polygon
   transform="matrix(11.298757,0,0,10.934032,-428.6723,-472.16529)"
   points="40.061,43.924 38.393,43.924 38.393,54 40.061,54 40.061,47.055 44.012,54 45.68,54 45.68,43.924 44.012,43.924 44.012,50.869 "
   id="polygon38" /><g
   transform="matrix(1.0236849,0,0,1,-23.975037,10.44898)"
   id="g53"><g
     id="g230"
     transform="matrix(3.7078473,0,0,4.0012733,195.85877,-84.993728)"><path
       id="path224"
       d="m 18.306,33.28 -5.013,5.013 c -0.391,0.391 -0.391,1.023 0,1.414 C 13.488,39.902 13.744,40 14,40 c 0.256,0 0.512,-0.098 0.707,-0.293 l 5.013,-5.013 c 0.391,-0.391 0.391,-1.023 0,-1.414 -0.391,-0.391 -1.024,-0.39 -1.414,0 z"
       style="fill:#9777a8" /><path
       id="path226"
       d="m 27.694,33.28 c -0.391,-0.391 -1.023,-0.391 -1.414,0 -0.391,0.391 -0.391,1.023 0,1.414 l 6.025,6.025 c 0.195,0.195 0.451,0.293 0.707,0.293 0.256,0 0.512,-0.098 0.707,-0.293 0.391,-0.391 0.391,-1.023 0,-1.414 z"
       style="fill:#9777a8" /><path
       id="path228"
       d="m 50.707,30.293 c -0.391,-0.391 -1.023,-0.391 -1.414,0 l -10,10 c -0.391,0.391 -0.391,1.023 0,1.414 C 39.488,41.902 39.744,42 40,42 c 0.256,0 0.512,-0.098 0.707,-0.293 l 10,-10 c 0.391,-0.391 0.391,-1.023 0,-1.414 z"
       style="fill:#9777a8" /></g><ellipse
     id="circle250"
     cy="87.012985"
     cx="236.68956"
     style="fill:#f29c1f;stroke-width:3.85176"
     rx="18.539236"
     ry="20.006367" /><ellipse
     id="circle252"
     cy="39.045704"
     cx="281.13925"
     style="fill:#71c285;stroke-width:3.85176"
     rx="18.539236"
     ry="20.006367" /><ellipse
     id="circle254"
     cy="27.041887"
     cx="396.08249"
     style="fill:#71c285;stroke-width:3.85176"
     rx="18.539236"
     ry="20.006367" /><ellipse
     id="circle256"
     cy="91.062241"
     cx="329.34125"
     style="fill:#f29c1f;stroke-width:3.85176"
     rx="18.539236"
     ry="20.006367" /></g></svg>
