<svg id="Layer_1" data-name="Layer 1" xmlns="http://www.w3.org/2000/svg" viewBox="0 0 30.83 42.09"><defs><style>.cls-1{fill:#fff;}.cls-2{fill:none;}.cls-3{fill:#2c5967;}</style></defs><title>OLD-Server - Big-Storage-Server</title><metadata><?xpacket begin="﻿" id="W5M0MpCehiHzreSzNTczkc9d"?>
<x:xmpmeta xmlns:x="adobe:ns:meta/" x:xmptk="Adobe XMP Core 6.0-c006 79.164648, 2021/01/12-15:52:29        ">
   <rdf:RDF xmlns:rdf="http://www.w3.org/1999/02/22-rdf-syntax-ns#">
      <rdf:Description rdf:about=""
            xmlns:xmpRights="http://ns.adobe.com/xap/1.0/rights/"
            xmlns:xmp="http://ns.adobe.com/xap/1.0/"
            xmlns:xmpMM="http://ns.adobe.com/xap/1.0/mm/"
            xmlns:stEvt="http://ns.adobe.com/xap/1.0/sType/ResourceEvent#"
            xmlns:dc="http://purl.org/dc/elements/1.1/"
            xmlns:lr="http://ns.adobe.com/lightroom/1.0/">
         <xmpRights:Marked>True</xmpRights:Marked>
         <xmp:MetadataDate>2021-07-22T15:12:24-05:00</xmp:MetadataDate>
         <xmpMM:InstanceID>xmp.iid:5bf32420-c881-4503-a3fc-668926698870</xmpMM:InstanceID>
         <xmpMM:DocumentID>xmp.did:dc3355e8-f792-44dd-be31-abba4f948294</xmpMM:DocumentID>
         <xmpMM:OriginalDocumentID>xmp.did:dc3355e8-f792-44dd-be31-abba4f948294</xmpMM:OriginalDocumentID>
         <xmpMM:History>
            <rdf:Seq>
               <rdf:li>
                  <rdf:Description>
                     <stEvt:action>saved</stEvt:action>
                     <stEvt:instanceID>xmp.iid:dc3355e8-f792-44dd-be31-abba4f948294</stEvt:instanceID>
                     <stEvt:when>2021-06-23T15:54:01-05:00</stEvt:when>
                     <stEvt:softwareAgent>Adobe Bridge 2021 (Macintosh)</stEvt:softwareAgent>
                     <stEvt:changed>/metadata</stEvt:changed>
                  </rdf:Description>
               </rdf:li>
               <rdf:li>
                  <rdf:Description>
                     <stEvt:action>saved</stEvt:action>
                     <stEvt:instanceID>xmp.iid:5bf32420-c881-4503-a3fc-668926698870</stEvt:instanceID>
                     <stEvt:when>2021-07-22T15:12:24-05:00</stEvt:when>
                     <stEvt:softwareAgent>Adobe Bridge 2021 (Macintosh)</stEvt:softwareAgent>
                     <stEvt:changed>/metadata</stEvt:changed>
                  </rdf:Description>
               </rdf:li>
            </rdf:Seq>
         </xmpMM:History>
         <dc:title>
            <rdf:Alt>
               <rdf:li xml:lang="x-default">OLD-Server - Big-Storage-Server</rdf:li>
            </rdf:Alt>
         </dc:title>
         <dc:rights>
            <rdf:Alt>
               <rdf:li xml:lang="x-default">Oracle All Rights Reserved</rdf:li>
            </rdf:Alt>
         </dc:rights>
         <dc:subject>
            <rdf:Bag>
               <rdf:li>icon</rdf:li>
               <rdf:li>technology</rdf:li>
               <rdf:li>Hardware</rdf:li>
               <rdf:li>server</rdf:li>
            </rdf:Bag>
         </dc:subject>
         <lr:hierarchicalSubject>
            <rdf:Bag>
               <rdf:li>icon</rdf:li>
               <rdf:li>technology</rdf:li>
               <rdf:li>Hardware</rdf:li>
               <rdf:li>server</rdf:li>
            </rdf:Bag>
         </lr:hierarchicalSubject>
      </rdf:Description>
   </rdf:RDF>
</x:xmpmeta>
                                                                                                    
                                                                                                    
                                                                                                    
                                                                                                    
                                                                                                    
                                                                                                    
                                                                                                    
                                                                                 
<?xpacket end="w"?></metadata>
<polygon class="cls-1" points="0.5 40.09 2.22 39.18 3.18 39.18 3.18 0.5 27.65 0.5 27.65 39.18 28.61 39.18 30.33 40.07 30.33 41.57 0.5 41.59 0.5 40.09"/><path class="cls-1" d="M27.15,1V39.68h1.34l1.34.69v.7L1,41.09v-.7l1.34-.71H3.68V1H27.15m1-1H2.68V38.68H2.09l-.22.12-1.34.71L0,39.79v2.3H1l28.83,0h1v-2.3l-.54-.28L29,38.79l-.22-.11h-.58V0Z"/><path class="cls-2" d="M25.81,2.29H5v8.32H25.81ZM8.54,7.49a1,1,0,1,1,1-1A1,1,0,0,1,8.54,7.49Zm3.35,0a1,1,0,1,1,1-1A1,1,0,0,1,11.89,7.49Zm7.21,1H17.76V4.37H19.1Zm2.35,0H20.11V4.37h1.34Zm2.35,0H22.45V4.37H23.8Z"/><path class="cls-2" d="M25.81,12H5V20.3H25.81ZM8.54,17.19a1,1,0,1,1,1-1A1,1,0,0,1,8.54,17.19Zm3.35,0a1,1,0,1,1,1-1A1,1,0,0,1,11.89,17.19Zm7.21,1H17.76V14.07H19.1Zm2.35,0H20.11V14.07h1.34Zm1,0V14.07H23.8v4.16Z"/><path class="cls-2" d="M5,39.7H25.81V31.39H5Zm17.43-6.24H23.8v4.16H22.45Zm-2.34,0h1.34v4.16H20.11Zm-2.35,0H19.1v4.16H17.76Zm-5.87,1a1,1,0,1,1-1,1A1,1,0,0,1,11.89,34.5Zm-3.35,0a1,1,0,1,1-1,1A1,1,0,0,1,8.54,34.5Z"/><path class="cls-2" d="M5,21.69V30H25.81V21.69H5Zm3.52,5.19a1,1,0,1,1,1-1A1,1,0,0,1,8.54,26.88Zm13.91-3.11H23.8v4.15H22.45Zm-2.34,0h1.34v4.15H20.11Zm-2.35,0H19.1v4.15H17.76Zm-5.87,1a1,1,0,1,1-1,1A1,1,0,0,1,11.89,24.8Z"/><ellipse class="cls-3" cx="11.89" cy="35.54" rx="1.01" ry="1.04"/><path class="cls-3" d="M28.49,39.68v0H27.15V.91H3.68V39.7H2.34L1,40.39v.7l28.83,0v-.7ZM5,2.29H25.81v8.32H5ZM5,12H25.81V20.3H5ZM25.81,39.7H5V31.39H25.81Zm0-9.7H5V21.69H25.81Z"/><ellipse class="cls-3" cx="8.54" cy="35.54" rx="1.01" ry="1.04"/><rect class="cls-3" x="20.11" y="33.46" width="1.34" height="4.16"/><rect class="cls-3" x="17.76" y="33.46" width="1.34" height="4.16"/><rect class="cls-3" x="20.11" y="23.77" width="1.34" height="4.16"/><ellipse class="cls-3" cx="11.89" cy="25.84" rx="1.01" ry="1.04"/><rect class="cls-3" x="17.76" y="23.77" width="1.34" height="4.16"/><rect class="cls-3" x="22.45" y="33.46" width="1.34" height="4.16"/><ellipse class="cls-3" cx="8.54" cy="25.84" rx="1.01" ry="1.04"/><rect class="cls-3" x="22.45" y="23.77" width="1.34" height="4.16"/><ellipse class="cls-3" cx="11.89" cy="6.45" rx="1.01" ry="1.04"/><rect class="cls-3" x="17.76" y="4.37" width="1.34" height="4.16"/><rect class="cls-3" x="22.45" y="4.37" width="1.34" height="4.16"/><rect class="cls-3" x="20.11" y="4.37" width="1.34" height="4.16"/><ellipse class="cls-3" cx="8.54" cy="6.45" rx="1.01" ry="1.04"/><rect class="cls-3" x="22.45" y="14.07" width="1.34" height="4.16"/><rect class="cls-3" x="20.11" y="14.07" width="1.34" height="4.16"/><ellipse class="cls-3" cx="8.54" cy="16.15" rx="1.01" ry="1.04"/><ellipse class="cls-3" cx="11.89" cy="16.15" rx="1.01" ry="1.04"/><rect class="cls-3" x="17.76" y="14.07" width="1.34" height="4.16"/></svg>