<svg id="Layer_1" data-name="Layer 1" xmlns="http://www.w3.org/2000/svg" viewBox="0 0 42 22"><defs><style>.cls-1{fill:#fff;}.cls-2{fill:#2c5967;}</style></defs><title>RAC Node</title><metadata><?xpacket begin="﻿" id="W5M0MpCehiHzreSzNTczkc9d"?>
<x:xmpmeta xmlns:x="adobe:ns:meta/" x:xmptk="Adobe XMP Core 6.0-c006 79.164648, 2021/01/12-15:52:29        ">
   <rdf:RDF xmlns:rdf="http://www.w3.org/1999/02/22-rdf-syntax-ns#">
      <rdf:Description rdf:about=""
            xmlns:xmpRights="http://ns.adobe.com/xap/1.0/rights/"
            xmlns:xmp="http://ns.adobe.com/xap/1.0/"
            xmlns:xmpMM="http://ns.adobe.com/xap/1.0/mm/"
            xmlns:stEvt="http://ns.adobe.com/xap/1.0/sType/ResourceEvent#"
            xmlns:dc="http://purl.org/dc/elements/1.1/"
            xmlns:lr="http://ns.adobe.com/lightroom/1.0/">
         <xmpRights:Marked>True</xmpRights:Marked>
         <xmp:MetadataDate>2021-06-24T19:33:17-05:00</xmp:MetadataDate>
         <xmpMM:InstanceID>xmp.iid:b72ca3eb-f759-4966-a28d-9dab4ce62fad</xmpMM:InstanceID>
         <xmpMM:DocumentID>xmp.did:d7ee7a75-40c7-45a2-ac8a-f65930a72d8d</xmpMM:DocumentID>
         <xmpMM:OriginalDocumentID>xmp.did:d7ee7a75-40c7-45a2-ac8a-f65930a72d8d</xmpMM:OriginalDocumentID>
         <xmpMM:History>
            <rdf:Seq>
               <rdf:li>
                  <rdf:Description>
                     <stEvt:action>saved</stEvt:action>
                     <stEvt:instanceID>xmp.iid:d7ee7a75-40c7-45a2-ac8a-f65930a72d8d</stEvt:instanceID>
                     <stEvt:when>2021-06-23T15:54:03-05:00</stEvt:when>
                     <stEvt:softwareAgent>Adobe Bridge 2021 (Macintosh)</stEvt:softwareAgent>
                     <stEvt:changed>/metadata</stEvt:changed>
                  </rdf:Description>
               </rdf:li>
               <rdf:li>
                  <rdf:Description>
                     <stEvt:action>saved</stEvt:action>
                     <stEvt:instanceID>xmp.iid:b72ca3eb-f759-4966-a28d-9dab4ce62fad</stEvt:instanceID>
                     <stEvt:when>2021-06-24T19:33:17-05:00</stEvt:when>
                     <stEvt:softwareAgent>Adobe Bridge 2021 (Macintosh)</stEvt:softwareAgent>
                     <stEvt:changed>/metadata</stEvt:changed>
                  </rdf:Description>
               </rdf:li>
            </rdf:Seq>
         </xmpMM:History>
         <dc:title>
            <rdf:Alt>
               <rdf:li xml:lang="x-default">RAC Node</rdf:li>
            </rdf:Alt>
         </dc:title>
         <dc:rights>
            <rdf:Alt>
               <rdf:li xml:lang="x-default">Oracle All Rights Reserved</rdf:li>
            </rdf:Alt>
         </dc:rights>
         <dc:subject>
            <rdf:Bag>
               <rdf:li>icon</rdf:li>
               <rdf:li>technology</rdf:li>
            </rdf:Bag>
         </dc:subject>
         <lr:hierarchicalSubject>
            <rdf:Bag>
               <rdf:li>icon</rdf:li>
               <rdf:li>technology</rdf:li>
            </rdf:Bag>
         </lr:hierarchicalSubject>
      </rdf:Description>
   </rdf:RDF>
</x:xmpmeta>
                                                                                                    
                                                                                                    
                                                                                                    
                                                                                                    
                                                                                                    
                                                                                                    
                                                                                                    
                                                                                                    
                                                                                                    
                                       
<?xpacket end="w"?></metadata>
<rect class="cls-1" x="0.5" y="0.5" width="41" height="21" rx="2.17"/><path class="cls-1" d="M39.33,1A1.67,1.67,0,0,1,41,2.67V19.33A1.67,1.67,0,0,1,39.33,21H2.67A1.67,1.67,0,0,1,1,19.33V2.67A1.67,1.67,0,0,1,2.67,1H39.33m0-1H2.67A2.68,2.68,0,0,0,0,2.67V19.33A2.68,2.68,0,0,0,2.67,22H39.33A2.68,2.68,0,0,0,42,19.33V2.67A2.68,2.68,0,0,0,39.33,0Z"/><path class="cls-2" d="M39.33,21H2.67A1.67,1.67,0,0,1,1,19.33V2.67A1.67,1.67,0,0,1,2.67,1H39.33A1.67,1.67,0,0,1,41,2.67V19.33A1.67,1.67,0,0,1,39.33,21ZM2.67,2.48a.2.2,0,0,0-.19.19V19.33a.2.2,0,0,0,.19.19H39.33a.2.2,0,0,0,.19-.19V2.67a.2.2,0,0,0-.19-.19Z"/><path class="cls-2" d="M36.56,16.37H5.81V5.63H36.56ZM7.3,14.89H35.07V7.11H7.3Z"/><circle class="cls-2" cx="31" cy="11" r="1.3"/></svg>