<svg id="Layer_1" data-name="Layer 1" xmlns="http://www.w3.org/2000/svg" viewBox="0 0 40.47 42"><defs><style>.cls-1{fill:#fff;}.cls-2{fill:none;}.cls-3{fill:#2c5967;}</style></defs><title>Server - Storage-Server</title><metadata><?xpacket begin="﻿" id="W5M0MpCehiHzreSzNTczkc9d"?>
<x:xmpmeta xmlns:x="adobe:ns:meta/" x:xmptk="Adobe XMP Core 6.0-c006 79.164648, 2021/01/12-15:52:29        ">
   <rdf:RDF xmlns:rdf="http://www.w3.org/1999/02/22-rdf-syntax-ns#">
      <rdf:Description rdf:about=""
            xmlns:xmp="http://ns.adobe.com/xap/1.0/"
            xmlns:xmpMM="http://ns.adobe.com/xap/1.0/mm/"
            xmlns:stEvt="http://ns.adobe.com/xap/1.0/sType/ResourceEvent#"
            xmlns:xmpRights="http://ns.adobe.com/xap/1.0/rights/"
            xmlns:dc="http://purl.org/dc/elements/1.1/"
            xmlns:lr="http://ns.adobe.com/lightroom/1.0/">
         <xmp:MetadataDate>2021-06-24T19:53:45-05:00</xmp:MetadataDate>
         <xmpMM:InstanceID>xmp.iid:4e50e737-c6dd-4d5c-8620-dac78b478d3f</xmpMM:InstanceID>
         <xmpMM:DocumentID>xmp.did:ca771c18-6430-46e7-8a78-c208724b2143</xmpMM:DocumentID>
         <xmpMM:OriginalDocumentID>xmp.did:ca771c18-6430-46e7-8a78-c208724b2143</xmpMM:OriginalDocumentID>
         <xmpMM:History>
            <rdf:Seq>
               <rdf:li>
                  <rdf:Description>
                     <stEvt:action>saved</stEvt:action>
                     <stEvt:instanceID>xmp.iid:ca771c18-6430-46e7-8a78-c208724b2143</stEvt:instanceID>
                     <stEvt:when>2021-06-18T11:41:55-05:00</stEvt:when>
                     <stEvt:softwareAgent>Adobe Bridge 2021 (Macintosh)</stEvt:softwareAgent>
                     <stEvt:changed>/metadata</stEvt:changed>
                  </rdf:Description>
               </rdf:li>
               <rdf:li>
                  <rdf:Description>
                     <stEvt:action>saved</stEvt:action>
                     <stEvt:instanceID>xmp.iid:4e50e737-c6dd-4d5c-8620-dac78b478d3f</stEvt:instanceID>
                     <stEvt:when>2021-06-24T19:53:45-05:00</stEvt:when>
                     <stEvt:softwareAgent>Adobe Bridge 2021 (Macintosh)</stEvt:softwareAgent>
                     <stEvt:changed>/metadata</stEvt:changed>
                  </rdf:Description>
               </rdf:li>
            </rdf:Seq>
         </xmpMM:History>
         <xmpRights:Marked>True</xmpRights:Marked>
         <dc:title>
            <rdf:Alt>
               <rdf:li xml:lang="x-default">Server - Storage-Server</rdf:li>
            </rdf:Alt>
         </dc:title>
         <dc:subject>
            <rdf:Bag>
               <rdf:li>icon</rdf:li>
               <rdf:li>technology</rdf:li>
               <rdf:li>Hardware</rdf:li>
            </rdf:Bag>
         </dc:subject>
         <dc:rights>
            <rdf:Alt>
               <rdf:li xml:lang="x-default">Oracle All Rights Reserved</rdf:li>
            </rdf:Alt>
         </dc:rights>
         <lr:hierarchicalSubject>
            <rdf:Bag>
               <rdf:li>icon</rdf:li>
               <rdf:li>technology</rdf:li>
               <rdf:li>Hardware</rdf:li>
            </rdf:Bag>
         </lr:hierarchicalSubject>
      </rdf:Description>
   </rdf:RDF>
</x:xmpmeta>
                                                                                                    
                                                                                                    
                                                                                                    
                                                                                                    
                                                                                                    
                                                                                                    
                                                                                                    
                                                                                                    
                                                                                                    
                                                                                                    
                                                                           
<?xpacket end="w"?></metadata>
<polygon class="cls-1" points="0.5 39.78 2.67 38.68 4.08 38.68 4.08 0.5 36.39 0.5 36.39 38.68 37.18 38.68 37.18 38.37 37.9 38.71 39.97 39.76 39.97 41.48 0.5 41.5 0.5 39.78"/><path class="cls-1" d="M35.89,1V39.18h1.79v0l1.79.91V41L1,41v-.91l1.79-.91H4.58V1H35.89m1-1H3.58V38.18h-1l-.21.11L.55,39.2,0,39.48V42H1l38.47,0h1V39.45l-.55-.27-1.79-.91-1.24-.64V0Z"/><path class="cls-2" d="M34.1,2.82H6.37v10.9H34.1Zm-23,6.82a1.37,1.37,0,1,1,1.35-1.37A1.35,1.35,0,0,1,11.06,9.64Zm4.48,0a1.37,1.37,0,1,1,1.34-1.37A1.36,1.36,0,0,1,15.54,9.64ZM25.15,11H23.36V5.55h1.79Zm3.13,0H26.49V5.55h1.79Zm1.35,0V5.55h1.78V11Z"/><path class="cls-2" d="M34.1,26.45V15.55H6.37v10.9Zm-4.47-2.73V18.28h1.78v5.44H29.63Zm-3.14,0V18.28h1.79v5.44H26.49Zm-3.13,0V18.28h1.79v5.44H23.36ZM14.19,21a1.35,1.35,0,1,1,2.69,0h0a1.35,1.35,0,1,1-2.69,0h0ZM9.72,21a1.35,1.35,0,1,1,2.69,0h0a1.35,1.35,0,1,1-2.69,0h0Z"/><path class="cls-2" d="M6.37,28.28v10.9H34.1V28.27H6.37Zm4.69,6.81a1.37,1.37,0,1,1,1.35-1.37A1.35,1.35,0,0,1,11.06,35.09Zm4.48,0a1.37,1.37,0,1,1,1.34-1.37A1.36,1.36,0,0,1,15.54,35.09ZM29.63,31h1.78v5.45H29.63Zm-3.14,0h1.79v5.45H26.49Zm-1.34,0v5.45H23.36V31Z"/><ellipse class="cls-3" cx="11.06" cy="33.72" rx="1.34" ry="1.36"/><rect class="cls-3" x="29.63" y="31" width="1.79" height="5.46"/><rect class="cls-3" x="23.36" y="31" width="1.79" height="5.46"/><rect class="cls-3" x="26.49" y="31" width="1.79" height="5.46"/><path class="cls-3" d="M37.68,39.16v0H35.89V1H4.58V39.18H2.79L1,40.09V41l38.47,0v-.91ZM34.1,15.55v10.9H6.37V15.55ZM6.37,2.82H34.1v10.9H6.37ZM34.1,39.18H6.37V28.28H34.1Z"/><ellipse class="cls-3" cx="15.54" cy="33.72" rx="1.34" ry="1.36"/><rect class="cls-3" x="26.49" y="5.55" width="1.79" height="5.46"/><ellipse class="cls-3" cx="15.54" cy="8.27" rx="1.34" ry="1.36"/><path class="cls-3" d="M11.06,22.37A1.36,1.36,0,0,0,12.41,21h0a1.35,1.35,0,1,0-2.69,0h0A1.35,1.35,0,0,0,11.06,22.37Z"/><ellipse class="cls-3" cx="11.06" cy="8.27" rx="1.34" ry="1.36"/><rect class="cls-3" x="23.36" y="5.55" width="1.79" height="5.46"/><rect class="cls-3" x="29.63" y="5.55" width="1.79" height="5.46"/><polygon class="cls-3" points="25.15 23.72 25.15 18.28 25.15 18.27 23.36 18.27 23.36 18.28 23.36 23.72 23.36 23.73 25.15 23.73 25.15 23.72"/><polygon class="cls-3" points="28.28 23.72 28.28 18.28 28.28 18.27 26.5 18.27 26.5 18.28 26.5 23.72 26.5 23.73 28.28 23.73 28.28 23.72"/><polygon class="cls-3" points="31.41 23.72 31.41 18.28 31.41 18.27 29.63 18.27 29.63 18.28 29.63 23.72 29.63 23.73 31.41 23.73 31.41 23.72"/><path class="cls-3" d="M15.54,22.37A1.35,1.35,0,0,0,16.88,21h0a1.35,1.35,0,1,0-2.69,0h0A1.36,1.36,0,0,0,15.54,22.37Z"/></svg>