<?xml version="1.0" encoding="iso-8859-1"?>
<!-- Generator: Adobe Illustrator 19.0.0, SVG Export Plug-In . SVG Version: 6.00 Build 0)  -->
<svg version="1.1" id="Layer_1" xmlns="http://www.w3.org/2000/svg" xmlns:xlink="http://www.w3.org/1999/xlink" x="0px" y="0px"
	 viewBox="0 0 512 512" style="enable-background:new 0 0 512 512;" xml:space="preserve">
<g>
	<rect x="57.323" y="86.061" style="fill:#57555C;" width="353.092" height="95.715"/>
	<rect x="57.323" y="228.854" style="fill:#57555C;" width="353.092" height="95.705"/>
	<rect x="57.323" y="371.647" style="fill:#57555C;" width="353.092" height="95.705"/>
</g>
<g>
	<rect x="233.861" y="86.061" style="fill:#3C3A41;" width="176.551" height="95.715"/>
	<rect x="233.861" y="228.854" style="fill:#3C3A41;" width="176.551" height="95.705"/>
	<rect x="233.861" y="371.647" style="fill:#3C3A41;" width="176.551" height="95.705"/>
</g>
<rect x="30.483" style="fill:#FFB74D;" width="406.767" height="120.971"/>
<g>
	<rect x="67.058" y="43.965" style="fill:#FFFFFF;" width="23.235" height="24.178"/>
	<rect x="108.858" y="43.965" style="fill:#FFFFFF;" width="23.235" height="24.178"/>
</g>
<rect x="30.483" y="156.227" style="fill:#FFB74D;" width="406.767" height="120.971"/>
<g>
	<rect x="67.058" y="199.964" style="fill:#FFFFFF;" width="23.235" height="24.178"/>
	<rect x="108.858" y="199.964" style="fill:#FFFFFF;" width="23.235" height="24.178"/>
</g>
<rect x="30.483" y="312.444" style="fill:#FFB74D;" width="406.767" height="120.982"/>
<g>
	<rect x="67.058" y="360.851" style="fill:#FFFFFF;" width="23.235" height="24.178"/>
	<rect x="108.858" y="360.851" style="fill:#FFFFFF;" width="23.235" height="24.178"/>
</g>
<g>
	<rect x="233.861" style="fill:#FFA91E;" width="203.389" height="120.971"/>
	<rect x="233.861" y="156.227" style="fill:#FFA91E;" width="203.389" height="120.971"/>
	<rect x="233.861" y="312.444" style="fill:#FFA91E;" width="203.389" height="120.982"/>
</g>
<path style="fill:#AEADB3;" d="M481.517,406.379C481.517,464.713,434.23,512,375.897,512c-0.251,0-0.503,0-0.754-0.01
	c-28.533-0.188-54.365-11.707-73.255-30.272c-16.963-16.67-28.324-39.015-30.994-63.978c-0.398-3.728-0.618-7.518-0.618-11.361
	c0-31.654,13.937-60.051,35.989-79.412c0.241-0.209,0.482-0.419,0.723-0.618c8.597-7.413,18.408-13.455,29.078-17.811
	c12.073-4.911,25.256-7.675,39.078-7.759c0.251-0.01,0.503-0.01,0.754-0.01C434.23,300.769,481.517,348.045,481.517,406.379z"/>
<path id="SVGCleanerId_0" style="fill:#8B8892;" d="M481.517,406.379C481.517,464.713,434.23,512,375.897,512
	c-0.251,0-0.503,0-0.754-0.01v-211.21c0.251-0.01,0.503-0.01,0.754-0.01C434.23,300.769,481.517,348.045,481.517,406.379z"/>
<g>
	<path id="SVGCleanerId_0_1_" style="fill:#8B8892;" d="M481.517,406.379C481.517,464.713,434.23,512,375.897,512
		c-0.251,0-0.503,0-0.754-0.01v-211.21c0.251-0.01,0.503-0.01,0.754-0.01C434.23,300.769,481.517,348.045,481.517,406.379z"/>
</g>
<path style="fill:#FFFFFF;" d="M375.499,329.951h-0.356c-21.717,0.188-39.329,17.916-39.329,39.675v40.858h79.36v-40.858
	C415.173,347.752,397.372,329.951,375.499,329.951z M383.76,379.071h-16.534v-9.445c0-4.44,3.529-8.073,7.916-8.251
	c0.115-0.01,0.241-0.01,0.356-0.01c4.555,0,8.262,3.707,8.262,8.262V379.071z"/>
<path style="fill:#D9D8DB;" d="M415.173,369.626v40.858h-40.031v-31.413h8.618v-9.445c0-4.555-3.707-8.262-8.262-8.262
	c-0.115,0-0.241,0-0.356,0.01v-31.423h0.356C397.372,329.951,415.173,347.752,415.173,369.626z"/>
<rect x="325.429" y="379.071" style="fill:#57555C;" width="99.433" height="88.804"/>
<rect x="375.146" y="379.071" style="fill:#3C3A41;" width="49.716" height="88.804"/>
<path style="fill:#FFFFFF;" d="M386.629,414.075c0,4.67-2.785,8.68-6.775,10.481v14.67h-9.424v-14.67
	c-4-1.801-6.785-5.811-6.785-10.481c0-6.345,5.141-11.497,11.497-11.497C381.489,402.578,386.629,407.73,386.629,414.075z"/>
<path style="fill:#D9D8DB;" d="M386.629,414.075c0,4.67-2.785,8.68-6.775,10.481v14.67h-4.712v-36.648
	C381.489,402.578,386.629,407.73,386.629,414.075z"/>
<g>
</g>
<g>
</g>
<g>
</g>
<g>
</g>
<g>
</g>
<g>
</g>
<g>
</g>
<g>
</g>
<g>
</g>
<g>
</g>
<g>
</g>
<g>
</g>
<g>
</g>
<g>
</g>
<g>
</g>
</svg>
