<?xml version="1.0" encoding="UTF-8" standalone="no"?>
<svg
   xmlns:dc="http://purl.org/dc/elements/1.1/"
   xmlns:cc="http://creativecommons.org/ns#"
   xmlns:rdf="http://www.w3.org/1999/02/22-rdf-syntax-ns#"
   xmlns:svg="http://www.w3.org/2000/svg"
   xmlns="http://www.w3.org/2000/svg"
   xmlns:sodipodi="http://sodipodi.sourceforge.net/DTD/sodipodi-0.dtd"
   xmlns:inkscape="http://www.inkscape.org/namespaces/inkscape"
   inkscape:version="1.0 (4035a4f, 2020-05-01)"
   sodipodi:docname="ring-of-fire-circus-svgrepo-com.svg"
   xml:space="preserve"
   style="enable-background:new 0 0 512 512;"
   viewBox="0 0 512 512"
   y="0px"
   x="0px"
   id="Layer_1"
   version="1.1"><metadata
   id="metadata61"><rdf:RDF><cc:Work
       rdf:about=""><dc:format>image/svg+xml</dc:format><dc:type
         rdf:resource="http://purl.org/dc/dcmitype/StillImage" /></cc:Work></rdf:RDF></metadata><defs
   id="defs59" /><sodipodi:namedview
   inkscape:current-layer="Layer_1"
   inkscape:window-maximized="1"
   inkscape:window-y="25"
   inkscape:window-x="0"
   inkscape:cy="256"
   inkscape:cx="256"
   inkscape:zoom="1.4355469"
   showgrid="false"
   id="namedview57"
   inkscape:window-height="1027"
   inkscape:window-width="1920"
   inkscape:pageshadow="2"
   inkscape:pageopacity="0"
   guidetolerance="10"
   gridtolerance="10"
   objecttolerance="10"
   borderopacity="1"
   bordercolor="#666666"
   pagecolor="#ffffff" />
<path
   id="path10"
   d="M493.41,140.992c10.846,27.719-13.257,61.463-13.257,61.463  c-3.615-21.693-13.257-31.334-19.283-65.079s22.898-56.643,22.898-56.643C478.948,107.247,487.987,127.12,493.41,140.992z"
   style="fill:#F95428;" />
<path
   id="path12"
   d="M427.777,363.512c2.434-11.63,3.712-23.681,3.712-36.034c0-96.919-78.564-175.495-175.483-175.495  S80.511,230.559,80.511,327.478c0,12.389,1.29,24.489,3.736,36.155c3.977,19.042,11.063,36.95,20.681,53.184  c0,0-70.671-9.485-81.517-58.896s16.872-45.796,0-101.233c0,0,18.065,6.966,29.936,17.234c2.916,2.507,7.364,0.217,6.954-3.603  c-3.025-28.285-2.929-85.892,41.445-116.069c60.258-40.975,28.924-83.156,28.924-83.156s45.796,31.334,47.001,73.515  c0,0,34.95-21.693,32.539-48.206c0,0,8.05,5.496,17.403,13.751c16.258,14.329,40.517,14.329,56.775,0  c9.352-8.255,17.403-13.751,17.403-13.751c-2.41,26.514,32.539,48.206,32.539,48.206c1.205-42.181,47.001-73.515,47.001-73.515  s-31.334,42.181,28.924,83.156c44.374,30.177,44.482,87.784,41.445,116.069c-0.41,3.82,4.049,6.11,6.954,3.603  c11.883-10.268,29.936-17.234,29.936-17.234c-16.872,55.437,10.846,51.822,0,101.233s-81.517,58.896-81.517,58.896  C416.714,400.547,423.8,382.602,427.777,363.512z"
   style="fill:#F7B239;" />


<g
   id="g22">
	<path
   id="path18"
   d="M256.006,0c34.347,34.347,0,83.156,0,83.156S221.659,34.347,256.006,0z"
   style="fill:#F95428;" />
	<path
   id="path20"
   d="M28.231,80.734c0,0,28.924,22.898,22.898,56.642s-15.667,43.386-19.283,65.079   c0,0-24.103-33.744-13.257-61.463C24.025,127.12,33.051,107.247,28.231,80.734z"
   style="fill:#F95428;" />
</g>
<path
   id="path24"
   d="M256.006,512c-32.627,0-64.695-8.631-92.738-24.961c-27.203-15.842-50.066-38.53-66.116-65.614  c-10.32-17.418-17.638-36.24-21.753-55.944c-2.606-12.425-3.926-25.213-3.926-38.002c0-101.753,82.781-184.534,184.534-184.534  c101.746,0,184.522,82.781,184.522,184.534c0,12.761-1.312,25.506-3.902,37.878l0,0c-4.118,19.769-11.445,38.634-21.777,56.069  c-16.044,27.081-38.904,49.771-66.107,65.612C320.703,503.367,288.634,512,256.006,512z M256.006,161.021  c-91.785,0-166.457,74.672-166.457,166.457c0,11.545,1.192,23.086,3.543,34.3c3.709,17.762,10.308,34.727,19.61,50.431  c14.484,24.438,35.115,44.911,59.661,59.207c25.283,14.723,54.206,22.506,83.64,22.506s58.357-7.783,83.638-22.506  c24.547-14.296,45.174-34.769,59.652-59.207c9.315-15.719,15.92-32.724,19.632-50.541c0.001-0.002,0.001-0.005,0.001-0.008  c2.336-11.159,3.52-22.659,3.52-34.182C422.451,235.693,347.784,161.021,256.006,161.021z"
   style="fill:#2197D8;" />
<g
   id="g26">
</g>
<g
   id="g28">
</g>
<g
   id="g30">
</g>
<g
   id="g32">
</g>
<g
   id="g34">
</g>
<g
   id="g36">
</g>
<g
   id="g38">
</g>
<g
   id="g40">
</g>
<g
   id="g42">
</g>
<g
   id="g44">
</g>
<g
   id="g46">
</g>
<g
   id="g48">
</g>
<g
   id="g50">
</g>
<g
   id="g52">
</g>
<g
   id="g54">
</g>
<path
   style="fill:#f80000;stroke-width:1.25138"
   id="path16-8"
   d="m 250.07893,261.72788 c -55.30228,0 -100.23538,-9.13371 -100.23538,-20.38776 v 220.18776 c 0,11.25405 44.9331,20.38776 100.23538,20.38776 55.30227,0 100.23536,-9.13371 100.23536,-20.38776 V 241.34012 c 0,11.25405 -44.93309,20.38776 -100.23536,20.38776"
   class="cls-2" /><path
   style="fill:#d90000;stroke-width:1.25138"
   id="path18-0"
   d="m 149.84355,241.34012 v 220.18776 c 0,11.25405 44.9331,20.38776 100.23538,20.38776 V 261.72788 c -55.30228,0 -100.23538,-9.13371 -100.23538,-20.38776"
   class="cls-3" /><path
   style="fill:#d90000;stroke-width:1.25138"
   id="path20-2"
   d="m 336.48873,251.68351 v 220.18776 c 8.77923,-3.03097 13.82556,-6.56485 13.82556,-10.32979 V 241.34012 c 0,3.77854 -5.03481,7.31242 -13.82556,10.34339"
   class="cls-3" /><ellipse
   style="fill:#ba0000;stroke-width:1.25138"
   id="ellipse22"
   rx="100.23537"
   cy="241.34015"
   class="cls-4"
   ry="20.387756"
   cx="250.07889" /><path
   style="fill:#9b0000;stroke-width:1.25138"
   id="path24-4"
   d="m 149.84355,379.97687 c 0,11.25403 44.9331,20.38775 100.23538,20.38775 55.30227,0 100.23536,-9.13372 100.23536,-20.38775 v 16.31019 c 0,11.25405 -44.93309,20.38776 -100.23536,20.38776 -55.30228,0 -100.23538,-9.13371 -100.23538,-20.38776"
   class="cls-5" /><path
   style="fill:#9b0000;stroke-width:1.25138"
   id="path26"
   d="m 350.31429,306.58094 c 0,11.25405 -44.93309,20.38776 -100.23536,20.38776 -55.30228,0 -100.23538,-9.13371 -100.23538,-20.38776 v 16.31021 c 0,11.25403 44.9331,20.38775 100.23538,20.38775 55.30227,0 100.23536,-9.13372 100.23536,-20.38775"
   class="cls-5" /><path
   style="fill:#f95428;stroke-width:1.02275"
   d="m 404.06749,328.46779 c 2.0795,24.055 29.81376,43.265 32.28447,44.928 -4.16004,19.09 -11.57217,37.035 -21.65792,53.304 -31.95705,51.569 -90.76447,86.145 -158.01959,86.145 -67.2551,0 -126.06253,-34.576 -158.03213,-86.145 -10.059608,-16.233 -17.472775,-34.142 -21.632809,-53.184 0,0 30.280269,-19.861 32.461229,-45.049 -0.52929,13.486 -1.66422,70.972 16.0983,87.953 20.17047,19.283 75.63794,8.834 56.31161,-45.796 0,0 26.54912,39.228 39.77295,85.422 4.31171,15.077 18.77089,25.453 35.10871,25.453 h 0.0126 c 16.33783,0 30.797,-10.376 35.10872,-25.453 13.22382,-46.194 39.77294,-85.422 39.77294,-85.422 -19.32528,54.63 36.14219,65.079 56.31161,45.796 17.76357,-16.98 16.62863,-74.466 16.09934,-87.952 z"
   id="path14" /></svg>
