<svg id="Layer_1" data-name="Layer 1" xmlns="http://www.w3.org/2000/svg" viewBox="0 0 42.83 42.83"><defs><style>.cls-1{fill:#fff;}.cls-2{fill:#2c5967;}</style></defs><title>Business_X_Mark--signature</title><metadata><?xpacket begin="﻿" id="W5M0MpCehiHzreSzNTczkc9d"?>
<x:xmpmeta xmlns:x="adobe:ns:meta/" x:xmptk="Adobe XMP Core 6.0-c006 79.164648, 2021/01/12-15:52:29        ">
   <rdf:RDF xmlns:rdf="http://www.w3.org/1999/02/22-rdf-syntax-ns#">
      <rdf:Description rdf:about=""
            xmlns:xmp="http://ns.adobe.com/xap/1.0/"
            xmlns:xmpMM="http://ns.adobe.com/xap/1.0/mm/"
            xmlns:stEvt="http://ns.adobe.com/xap/1.0/sType/ResourceEvent#"
            xmlns:xmpRights="http://ns.adobe.com/xap/1.0/rights/"
            xmlns:dc="http://purl.org/dc/elements/1.1/"
            xmlns:lr="http://ns.adobe.com/lightroom/1.0/">
         <xmp:MetadataDate>2021-07-21T17:37:02-05:00</xmp:MetadataDate>
         <xmpMM:InstanceID>xmp.iid:3da945ae-a1e9-4bf4-806a-e198e7afa383</xmpMM:InstanceID>
         <xmpMM:DocumentID>xmp.did:3a3ef4f4-b82e-45d6-8d00-1ab0706b8c4b</xmpMM:DocumentID>
         <xmpMM:OriginalDocumentID>xmp.did:3a3ef4f4-b82e-45d6-8d00-1ab0706b8c4b</xmpMM:OriginalDocumentID>
         <xmpMM:History>
            <rdf:Seq>
               <rdf:li>
                  <rdf:Description>
                     <stEvt:action>saved</stEvt:action>
                     <stEvt:instanceID>xmp.iid:3a3ef4f4-b82e-45d6-8d00-1ab0706b8c4b</stEvt:instanceID>
                     <stEvt:when>2021-06-18T11:41:23-05:00</stEvt:when>
                     <stEvt:softwareAgent>Adobe Bridge 2021 (Macintosh)</stEvt:softwareAgent>
                     <stEvt:changed>/metadata</stEvt:changed>
                  </rdf:Description>
               </rdf:li>
               <rdf:li>
                  <rdf:Description>
                     <stEvt:action>saved</stEvt:action>
                     <stEvt:instanceID>xmp.iid:3da945ae-a1e9-4bf4-806a-e198e7afa383</stEvt:instanceID>
                     <stEvt:when>2021-07-21T17:37:02-05:00</stEvt:when>
                     <stEvt:softwareAgent>Adobe Bridge 2021 (Macintosh)</stEvt:softwareAgent>
                     <stEvt:changed>/metadata</stEvt:changed>
                  </rdf:Description>
               </rdf:li>
            </rdf:Seq>
         </xmpMM:History>
         <xmpRights:Marked>True</xmpRights:Marked>
         <dc:title>
            <rdf:Alt>
               <rdf:li xml:lang="x-default">Business_X_Mark--signature</rdf:li>
            </rdf:Alt>
         </dc:title>
         <dc:subject>
            <rdf:Bag>
               <rdf:li>icon</rdf:li>
               <rdf:li>Business</rdf:li>
               <rdf:li>cross</rdf:li>
               <rdf:li>mark</rdf:li>
               <rdf:li>X</rdf:li>
            </rdf:Bag>
         </dc:subject>
         <dc:rights>
            <rdf:Alt>
               <rdf:li xml:lang="x-default">Oracle All Rights Reserved</rdf:li>
            </rdf:Alt>
         </dc:rights>
         <lr:hierarchicalSubject>
            <rdf:Bag>
               <rdf:li>icon</rdf:li>
               <rdf:li>Business</rdf:li>
               <rdf:li>mark</rdf:li>
               <rdf:li>X</rdf:li>
            </rdf:Bag>
         </lr:hierarchicalSubject>
      </rdf:Description>
   </rdf:RDF>
</x:xmpmeta>
                                                                                                    
                                                                                                    
                                                                                                    
                                                                                                    
                                                                                                    
                                                                                                    
                                                                                                    
                                                                                                    
                                                                                                    
                                                                                  
<?xpacket end="w"?></metadata>
<polygon class="cls-1" points="21.41 27.21 6.5 42.12 0.71 36.32 15.62 21.41 0.71 6.5 6.5 0.71 21.41 15.62 36.32 0.71 42.12 6.5 27.21 21.41 42.12 36.32 36.32 42.12 21.41 27.21"/><path class="cls-1" d="M36.32,1.41,40,5.05h0l1.45,1.46-14.9,14.9,14.9,14.91L37.78,40h0l-1.46,1.45L21.41,26.51,6.51,41.41,2.87,37.78,1.41,36.32,16.32,21.41,1.41,6.51l5.1-5.1,14.9,14.91L36.32,1.41m0-1.41-.7.71L21.41,14.91,7.21.71,6.51,0,5.8.71.71,5.8,0,6.51l.71.7,14.2,14.2L.71,35.62l-.71.7L.71,37l1.45,1.45L5.8,42.12l.71.71.7-.71,14.2-14.2,14.21,14.2.7.71.71-.71,1.45-1.45L42.12,37l.71-.71-.71-.7L27.92,21.41l14.2-14.2.71-.7-.71-.71L40.67,4.34,37,.71,36.32,0Z"/><polygon class="cls-2" points="23.6 21.41 39.96 37.78 41.41 36.32 26.5 21.41 41.41 6.5 39.96 5.05 23.6 21.41"/><polygon class="cls-2" points="1.41 6.5 16.32 21.41 1.41 36.32 2.87 37.78 19.23 21.41 2.87 5.05 1.41 6.5"/><polygon class="cls-2" points="36.32 1.41 21.41 16.32 6.5 1.41 5.05 2.87 21.41 19.23 37.78 2.87 36.32 1.41"/><polygon class="cls-2" points="5.05 39.96 6.5 41.41 21.41 26.5 36.32 41.41 37.78 39.96 21.41 23.6 5.05 39.96"/></svg>