<svg id="Layer_1" data-name="Layer 1" xmlns="http://www.w3.org/2000/svg" viewBox="0 0 24.39 42"><defs><style>.cls-1{fill:#fff;}.cls-2{fill:#2c5967;}</style></defs><title>Question-mark</title><metadata><?xpacket begin="﻿" id="W5M0MpCehiHzreSzNTczkc9d"?>
<x:xmpmeta xmlns:x="adobe:ns:meta/" x:xmptk="Adobe XMP Core 6.0-c006 79.164648, 2021/01/12-15:52:29        ">
   <rdf:RDF xmlns:rdf="http://www.w3.org/1999/02/22-rdf-syntax-ns#">
      <rdf:Description rdf:about=""
            xmlns:xmpRights="http://ns.adobe.com/xap/1.0/rights/"
            xmlns:xmp="http://ns.adobe.com/xap/1.0/"
            xmlns:xmpMM="http://ns.adobe.com/xap/1.0/mm/"
            xmlns:stEvt="http://ns.adobe.com/xap/1.0/sType/ResourceEvent#"
            xmlns:dc="http://purl.org/dc/elements/1.1/"
            xmlns:lr="http://ns.adobe.com/lightroom/1.0/">
         <xmpRights:Marked>True</xmpRights:Marked>
         <xmp:MetadataDate>2021-07-22T15:05:55-05:00</xmp:MetadataDate>
         <xmpMM:InstanceID>xmp.iid:bcc0935a-b648-4e46-bfcf-4c5225740de2</xmpMM:InstanceID>
         <xmpMM:DocumentID>xmp.did:fa4ada7e-ff2a-4112-8ef3-1ebac6541f76</xmpMM:DocumentID>
         <xmpMM:OriginalDocumentID>xmp.did:fa4ada7e-ff2a-4112-8ef3-1ebac6541f76</xmpMM:OriginalDocumentID>
         <xmpMM:History>
            <rdf:Seq>
               <rdf:li>
                  <rdf:Description>
                     <stEvt:action>saved</stEvt:action>
                     <stEvt:instanceID>xmp.iid:fa4ada7e-ff2a-4112-8ef3-1ebac6541f76</stEvt:instanceID>
                     <stEvt:when>2021-06-23T15:54:03-05:00</stEvt:when>
                     <stEvt:softwareAgent>Adobe Bridge 2021 (Macintosh)</stEvt:softwareAgent>
                     <stEvt:changed>/metadata</stEvt:changed>
                  </rdf:Description>
               </rdf:li>
               <rdf:li>
                  <rdf:Description>
                     <stEvt:action>saved</stEvt:action>
                     <stEvt:instanceID>xmp.iid:bcc0935a-b648-4e46-bfcf-4c5225740de2</stEvt:instanceID>
                     <stEvt:when>2021-07-22T15:05:55-05:00</stEvt:when>
                     <stEvt:softwareAgent>Adobe Bridge 2021 (Macintosh)</stEvt:softwareAgent>
                     <stEvt:changed>/metadata</stEvt:changed>
                  </rdf:Description>
               </rdf:li>
            </rdf:Seq>
         </xmpMM:History>
         <dc:title>
            <rdf:Alt>
               <rdf:li xml:lang="x-default">Question-mark</rdf:li>
            </rdf:Alt>
         </dc:title>
         <dc:rights>
            <rdf:Alt>
               <rdf:li xml:lang="x-default">Oracle All Rights Reserved</rdf:li>
            </rdf:Alt>
         </dc:rights>
         <dc:subject>
            <rdf:Bag>
               <rdf:li>icon</rdf:li>
               <rdf:li>sign</rdf:li>
               <rdf:li>communication</rdf:li>
               <rdf:li>text</rdf:li>
            </rdf:Bag>
         </dc:subject>
         <lr:hierarchicalSubject>
            <rdf:Bag>
               <rdf:li>icon</rdf:li>
               <rdf:li>sign</rdf:li>
               <rdf:li>communication</rdf:li>
               <rdf:li>text</rdf:li>
            </rdf:Bag>
         </lr:hierarchicalSubject>
      </rdf:Description>
   </rdf:RDF>
</x:xmpmeta>
                                                                                                    
                                                                                                    
                                                                                                    
                                                                                                    
                                                                                                    
                                                                                                    
                                                                                                    
                                                                                       
<?xpacket end="w"?></metadata>
<path class="cls-1" d="M3.82,41.5V31.18H5.13v-1.8L4,19.52,9.1,17.27a9.66,9.66,0,0,0,3.6-2.39,3.9,3.9,0,0,0,.87-2.5,2.46,2.46,0,0,0-.78-2,4.24,4.24,0,0,0-2.73-.74,22.07,22.07,0,0,0-7.73,1.85L.5,12.19V2.91l.8-.35a24.52,24.52,0,0,1,4.82-1.5,24.44,24.44,0,0,1,5-.56c4.13,0,7.31.93,9.45,2.76S23.89,8,23.89,11.59a11.84,11.84,0,0,1-2.72,7.62,18.32,18.32,0,0,1-6.81,4.95l-.63,5.66v1.36h1.41V41.5Z"/><path class="cls-1" d="M11.11,1c4,0,7.07.89,9.13,2.64s3.15,4.46,3.15,8a11.3,11.3,0,0,1-2.61,7.3,18,18,0,0,1-6.88,4.93l-.66,5.95v1.91h1.4V41H4.32V31.68H5.63v-2.3l-1-9.56L9.3,17.73a10,10,0,0,0,3.79-2.55,4.37,4.37,0,0,0,1-2.8,2.93,2.93,0,0,0-1-2.41,4.64,4.64,0,0,0-3-.86A22.32,22.32,0,0,0,2.15,11L1,11.45V3.24L1.5,3A24.4,24.4,0,0,1,6.22,1.55,23.48,23.48,0,0,1,11.11,1m0-1A24.64,24.64,0,0,0,6,.57,25.55,25.55,0,0,0,1.1,2.1l-.5.22L0,2.58V12.93l1.37-.55,1.15-.45a21.45,21.45,0,0,1,7.54-1.82,3.82,3.82,0,0,1,2.41.62,1.94,1.94,0,0,1,.6,1.65,3.4,3.4,0,0,1-.76,2.19,9,9,0,0,1-3.42,2.25L4.17,18.91l-.67.3.08.72,1,9.5v1.25H3.32V42H15.64V30.68h-1.4v-.86l.59-5.32a18.46,18.46,0,0,0,6.72-5,12.23,12.23,0,0,0,2.84-7.93c0-3.8-1.18-6.73-3.5-8.71S15.36,0,11.11,0Z"/><path class="cls-2" d="M20.24,3.64C18.18,1.89,15.11,1,11.12,1a23.5,23.5,0,0,0-4.9.55A24.4,24.4,0,0,0,1.5,3L1,3.24v8.21L2.15,11a22.32,22.32,0,0,1,7.91-1.89,4.64,4.64,0,0,1,3,.86,2.93,2.93,0,0,1,1,2.41,4.37,4.37,0,0,1-1,2.8A10,10,0,0,1,9.3,17.73L4.58,19.82l1.09,10h7.56l.67-5.95a18,18,0,0,0,6.88-4.93,11.3,11.3,0,0,0,2.61-7.3C23.39,8.1,22.33,5.42,20.24,3.64ZM11.74,28.1H7.17l-.8-7.24L10,19.26a11.51,11.51,0,0,0,4.43-3,6.07,6.07,0,0,0,1.34-3.84,4.57,4.57,0,0,0-1.57-3.7,6.26,6.26,0,0,0-4.12-1.25A22.45,22.45,0,0,0,2.67,9V4.34a24.79,24.79,0,0,1,3.9-1.16,22.88,22.88,0,0,1,4.55-.51c7.13,0,10.6,2.92,10.6,8.92a9.66,9.66,0,0,1-2.24,6.25,16.77,16.77,0,0,1-6.68,4.63l-.46.19Z"/><path class="cls-2" d="M4.32,41H14.64V31.68H4.32ZM6,33.36h7v6H6Z"/></svg>