<svg id="Layer_1" data-name="Layer 1" xmlns="http://www.w3.org/2000/svg" viewBox="0 0 42 42"><defs><style>.cls-1{fill:#fff;}.cls-2{fill:#2c5967;}</style></defs><title>Business_Clock--time</title><metadata><?xpacket begin="﻿" id="W5M0MpCehiHzreSzNTczkc9d"?>
<x:xmpmeta xmlns:x="adobe:ns:meta/" x:xmptk="Adobe XMP Core 6.0-c006 79.164648, 2021/01/12-15:52:29        ">
   <rdf:RDF xmlns:rdf="http://www.w3.org/1999/02/22-rdf-syntax-ns#">
      <rdf:Description rdf:about=""
            xmlns:xmp="http://ns.adobe.com/xap/1.0/"
            xmlns:xmpMM="http://ns.adobe.com/xap/1.0/mm/"
            xmlns:stEvt="http://ns.adobe.com/xap/1.0/sType/ResourceEvent#"
            xmlns:xmpRights="http://ns.adobe.com/xap/1.0/rights/"
            xmlns:dc="http://purl.org/dc/elements/1.1/"
            xmlns:lr="http://ns.adobe.com/lightroom/1.0/">
         <xmp:MetadataDate>2021-07-21T17:11:30-05:00</xmp:MetadataDate>
         <xmpMM:InstanceID>xmp.iid:50cc0d76-3f97-491c-ad75-c61083d5d2fc</xmpMM:InstanceID>
         <xmpMM:DocumentID>xmp.did:c28662d7-9add-4685-8252-4ec0647850fc</xmpMM:DocumentID>
         <xmpMM:OriginalDocumentID>xmp.did:c28662d7-9add-4685-8252-4ec0647850fc</xmpMM:OriginalDocumentID>
         <xmpMM:History>
            <rdf:Seq>
               <rdf:li>
                  <rdf:Description>
                     <stEvt:action>saved</stEvt:action>
                     <stEvt:instanceID>xmp.iid:c28662d7-9add-4685-8252-4ec0647850fc</stEvt:instanceID>
                     <stEvt:when>2021-06-18T11:41:18-05:00</stEvt:when>
                     <stEvt:softwareAgent>Adobe Bridge 2021 (Macintosh)</stEvt:softwareAgent>
                     <stEvt:changed>/metadata</stEvt:changed>
                  </rdf:Description>
               </rdf:li>
               <rdf:li>
                  <rdf:Description>
                     <stEvt:action>saved</stEvt:action>
                     <stEvt:instanceID>xmp.iid:50cc0d76-3f97-491c-ad75-c61083d5d2fc</stEvt:instanceID>
                     <stEvt:when>2021-07-21T17:11:30-05:00</stEvt:when>
                     <stEvt:softwareAgent>Adobe Bridge 2021 (Macintosh)</stEvt:softwareAgent>
                     <stEvt:changed>/metadata</stEvt:changed>
                  </rdf:Description>
               </rdf:li>
            </rdf:Seq>
         </xmpMM:History>
         <xmpRights:Marked>True</xmpRights:Marked>
         <dc:title>
            <rdf:Alt>
               <rdf:li xml:lang="x-default">Business_Clock--time</rdf:li>
            </rdf:Alt>
         </dc:title>
         <dc:subject>
            <rdf:Bag>
               <rdf:li>icon</rdf:li>
               <rdf:li>Business</rdf:li>
               <rdf:li>time</rdf:li>
               <rdf:li>clock</rdf:li>
               <rdf:li>hour</rdf:li>
            </rdf:Bag>
         </dc:subject>
         <dc:rights>
            <rdf:Alt>
               <rdf:li xml:lang="x-default">Oracle All Rights Reserved</rdf:li>
            </rdf:Alt>
         </dc:rights>
         <lr:hierarchicalSubject>
            <rdf:Bag>
               <rdf:li>icon</rdf:li>
               <rdf:li>Business</rdf:li>
               <rdf:li>time</rdf:li>
               <rdf:li>clock</rdf:li>
            </rdf:Bag>
         </lr:hierarchicalSubject>
      </rdf:Description>
   </rdf:RDF>
</x:xmpmeta>
                                                                                                    
                                                                                                    
                                                                                                    
                                                                                                    
                                                                                                    
                                                                                                    
                                                                                                    
                                                                                                    
                                                                                                    
                                                                           
<?xpacket end="w"?></metadata>
<circle class="cls-1" cx="21" cy="21" r="20.5"/><path class="cls-1" d="M21,1A20,20,0,1,1,1,21,20,20,0,0,1,21,1m0-1A21,21,0,1,0,42,21,21,21,0,0,0,21,0Z"/><path class="cls-2" d="M21,1A20,20,0,1,0,41,21,20,20,0,0,0,21,1m0,38.37A18.37,18.37,0,1,1,39.37,21,18.39,18.39,0,0,1,21,39.37m-.82-5.75h1.64v1.64H20.18Zm15.11-11.8H33.65V20.18h1.64Zm-26.94,0H6.71V20.18H8.35ZM28,31.55,28.85,33l-1.41.82-.82-1.41Zm4.34-16.17L31.55,14,33,13.15l.82,1.41ZM14.56,8.22l.82,1.41L14,10.45,13.15,9ZM9.63,26.62,10.45,28,9,28.85l-.82-1.41Zm22.74,0,1.41.82L33,28.85,31.55,28ZM28,10.45l-1.41-.82.82-1.41L28.85,9ZM9,13.15l1.41.82-.82,1.41-1.41-.82ZM14,31.55l1.41.82-.82,1.41L13.15,33ZM21,3.86A17.14,17.14,0,1,0,38.14,21,17.16,17.16,0,0,0,21,3.86m0,32.65A15.51,15.51,0,1,1,36.51,21,15.53,15.53,0,0,1,21,36.51m6.94-18H24.67v1.63h3.27a.82.82,0,0,1,0,1.64H23.31a2.3,2.3,0,0,0,.14-.79V9.16a2.45,2.45,0,0,0-4.9,0V21A2.44,2.44,0,0,0,21,23.42h6.94a2.45,2.45,0,0,0,0-4.9M20.18,21V9.16a.82.82,0,0,1,1.64,0V21a.82.82,0,0,1-1.64,0"/></svg>